<?xml version="1.0" encoding="UTF-8" standalone="no"?>
<svg
   xmlns:dc="http://purl.org/dc/elements/1.1/"
   xmlns:cc="http://creativecommons.org/ns#"
   xmlns:rdf="http://www.w3.org/1999/02/22-rdf-syntax-ns#"
   xmlns:svg="http://www.w3.org/2000/svg"
   xmlns="http://www.w3.org/2000/svg"
   xmlns:sodipodi="http://sodipodi.sourceforge.net/DTD/sodipodi-0.dtd"
   xmlns:inkscape="http://www.inkscape.org/namespaces/inkscape"
   version="1.1"
   id="svg835"
   xml:space="preserve"
   width="802.75238"
   height="222.89159"
   viewBox="0 0 802.75238 222.89159"
   sodipodi:docname="makefiles_obj.svg"
   inkscape:version="1.0.1 (3bc2e813f5, 2020-09-07)"><sodipodi:namedview
     pagecolor="#ffffff"
     bordercolor="#666666"
     borderopacity="1"
     objecttolerance="10"
     gridtolerance="10"
     guidetolerance="10"
     inkscape:pageopacity="0"
     inkscape:pageshadow="2"
     inkscape:window-width="1676"
     inkscape:window-height="1014"
     id="namedview874"
     showgrid="false"
     inkscape:zoom="1.1644876"
     inkscape:cx="332.21635"
     inkscape:cy="46.435811"
     inkscape:window-x="0"
     inkscape:window-y="34"
     inkscape:window-maximized="1"
     inkscape:current-layer="svg835"
     inkscape:document-rotation="0" /><style
     id="style987" /><metadata
     id="metadata841"><rdf:RDF><cc:Work
         rdf:about=""><dc:format>image/svg+xml</dc:format><dc:type
           rdf:resource="http://purl.org/dc/dcmitype/StillImage" /><dc:title /></cc:Work></rdf:RDF></metadata><defs
     id="defs839"><clipPath
       clipPathUnits="userSpaceOnUse"
       id="clipPath851"><path
         d="M 0,1.2207e-4 H 720 V 540.00012 H 0 Z"
         clip-rule="evenodd"
         id="path849" /></clipPath></defs><text
     style="font-variant:normal;font-weight:normal;font-size:26.72px;font-family:'Courier New';-inkscape-font-specification:'Courier New';writing-mode:lr-tb;fill:#4d4d4d;fill-opacity:1;fill-rule:nonzero;stroke:none;stroke-width:1.33333;"
     id="text913"
     x="-0.27398443"
     y="88.179581"><tspan
       x="-0.27398443 15.726015 31.726015 47.726013 63.726013 79.726013"
       y="88.179581"
       id="tspan911"
       style="stroke-width:1.33333;fill:#4d4d4d;">main.o</tspan></text><text
     style="font-variant:normal;font-weight:normal;font-size:26.72px;font-family:'Courier New';-inkscape-font-specification:'Courier New';writing-mode:lr-tb;fill:#4d4d4d;fill-opacity:1;fill-rule:nonzero;stroke:none;stroke-width:1.33333;"
     id="text917"
     x="95.752678"
     y="88.179581"><tspan
       x="95.752678 111.75268"
       y="88.179581"
       id="tspan915"
       style="stroke-width:1.33333;fill:#4d4d4d;">: </tspan></text><text
     style="font-variant:normal;font-weight:normal;font-size:26.72px;font-family:'Courier New';-inkscape-font-specification:'Courier New';writing-mode:lr-tb;fill:#4d4d4d;fill-opacity:1;fill-rule:nonzero;stroke:none;stroke-width:1.33333;"
     id="text921"
     x="127.75268"
     y="88.179581"><tspan
       x="127.75268 143.75269 159.75269 175.75269 191.75269 207.75269"
       y="88.179581"
       id="tspan919"
       style="stroke-width:1.33333;fill:#4d4d4d;">main.c</tspan></text><text
     style="font-variant:normal;font-weight:normal;font-size:26.72px;font-family:'Courier New';-inkscape-font-specification:'Courier New';writing-mode:lr-tb;fill:#4d4d4d;fill-opacity:1;fill-rule:nonzero;stroke:none;stroke-width:1.33333;"
     id="text925"
     x="239.79268"
     y="88.179581"><tspan
       x="239.79268 255.79268 271.79269 287.79266 303.79266 319.79266 335.79266 351.79266"
       y="88.179581"
       id="tspan923"
       style="stroke-width:1.33333;fill:#4d4d4d;">images.h</tspan></text><text
     style="font-variant:normal;font-weight:normal;font-size:26.72px;font-family:'Courier New';-inkscape-font-specification:'Courier New';writing-mode:lr-tb;fill:#4d4d4d;fill-opacity:1;fill-rule:nonzero;stroke:none;stroke-width:1.33333;"
     id="text929"
     x="383.79266"
     y="88.179581"><tspan
       x="383.79266 399.79266 415.79266 431.79266 447.79266"
       y="88.179581"
       id="tspan927"
       style="stroke-width:1.33333;fill:#4d4d4d;">gui.h</tspan></text><text
     style="font-variant:normal;font-weight:normal;font-size:26.72px;font-family:'Courier New';-inkscape-font-specification:'Courier New';writing-mode:lr-tb;fill:#4d4d4d;fill-opacity:1;fill-rule:nonzero;stroke:none;stroke-width:1.33333;"
     id="text933"
     x="35.758015"
     y="126.57958"><tspan
       x="35.758015 51.758015 67.758011"
       y="126.57958"
       id="tspan931"
       style="stroke-width:1.33333;fill:#4d4d4d;">gcc -c</tspan></text><text
     style="font-variant:normal;font-weight:normal;font-size:26.72px;font-family:'Courier New';-inkscape-font-specification:'Courier New';writing-mode:lr-tb;fill:#4d4d4d;fill-opacity:1;fill-rule:nonzero;stroke:none;stroke-width:1.33333;"
     id="text937"
     x="155.75269"
     y="126.57958"><tspan
       x="155.75269 171.75269 187.75269 203.75269 219.75269 235.75269"
       y="126.57958"
       id="tspan935"
       style="stroke-width:1.33333;fill:#4d4d4d;">main.c</tspan></text><text
     style="font-variant:normal;font-weight:normal;font-size:26.72px;font-family:'Courier New';-inkscape-font-specification:'Courier New';writing-mode:lr-tb;fill:#4d4d4d;fill-opacity:1;fill-rule:nonzero;stroke:none;stroke-width:1.33333;"
     id="text941"
     x="267.75269"
     y="126.57958"><tspan
       x="267.75269"
       y="126.57958"
       id="tspan939"
       style="fill:#4d4d4d;stroke-width:1.33333;">-</tspan></text><text
     style="font-variant:normal;font-weight:normal;font-size:26.72px;font-family:'Courier New';-inkscape-font-specification:'Courier New';writing-mode:lr-tb;fill:#4d4d4d;fill-opacity:1;fill-rule:nonzero;stroke:none;stroke-width:1.33333;"
     id="text945"
     x="283.79266"
     y="126.57958"><tspan
       x="283.79266 299.79266"
       y="126.57958"
       id="tspan943"
       style="stroke-width:1.33333;fill:#4d4d4d;">o </tspan></text><text
     style="font-variant:normal;font-weight:normal;font-size:26.72px;font-family:'Courier New';-inkscape-font-specification:'Courier New';writing-mode:lr-tb;fill:#4d4d4d;fill-opacity:1;fill-rule:nonzero;stroke:none;stroke-width:1.33333;"
     id="text949"
     x="315.79269"
     y="126.57958"><tspan
       x="315.79269 331.79269 347.79269 363.79266 379.79266 395.79266"
       y="126.57958"
       id="tspan947"
       style="stroke-width:1.33333;fill:#4d4d4d;">main.o</tspan></text><text
     style="font-variant:normal;font-weight:normal;font-size:24px;font-family:Cantarell;-inkscape-font-specification:Cantarell;writing-mode:lr-tb;fill:#4d4d4d;fill-opacity:1;fill-rule:nonzero;stroke:none;stroke-width:1.33333;"
     id="text965"
     x="535.81934"
     y="19.792913"><tspan
       x="535.81934 545.89935 551.34735 560.46735 568.14734 580.09937 585.71533 598.31537 610.33936 615.90735 628.50732 640.53131 653.13135 665.15533 677.75537 690.40332 701.89935 714.49933 724.65131"
       y="19.792913"
       id="tspan963"
       style="stroke-width:1.33333;fill:#4d4d4d;">Liste de dépendance</tspan></text><path
     d="m 525.95267,11.432914 -135.08,51.039999 0.36,0.933333 135.06667,-51.039998 z m -129.45333,43.999999 -6.37333,7.853333 9.97333,1.68 c 0.28,0.05333 0.53333,-0.133333 0.57333,-0.413333 0.0533,-0.266667 -0.13333,-0.52 -0.4,-0.573333 l -9.13333,-1.533334 0.30667,0.8 5.82666,-7.186666 c 0.17334,-0.213333 0.14667,-0.533333 -0.0667,-0.706667 -0.21334,-0.173333 -0.53334,-0.133333 -0.70667,0.08 z"
     style="fill:#4a7ebb;fill-opacity:1;fill-rule:nonzero;stroke:none;stroke-width:1.33333"
     id="path967" /><text
     style="font-variant:normal;font-weight:normal;font-size:24px;font-family:Cantarell;-inkscape-font-specification:Cantarell;writing-mode:lr-tb;fill:#4d4d4d;fill-opacity:1;fill-rule:nonzero;stroke:none;stroke-width:1.33333;"
     id="text971"
     x="39.758015"
     y="16.406248"><tspan
       x="39.758015 52.406013 65.006012 70.742012 82.766014 92.846016 100.88602 106.28601"
       y="16.406248"
       id="tspan969"
       style="stroke-width:1.33333;fill:#4d4d4d;">objectif</tspan></text><path
     d="m 76.819347,30.939581 -30.362666,31.293332 0.717333,0.693333 30.365333,-31.293332 z m -28.266666,22.519999 -2.428,9.826666 9.745333,-2.72 c 0.266667,-0.08 0.421333,-0.346666 0.348,-0.613333 -0.07467,-0.266667 -0.350667,-0.426667 -0.616,-0.346667 l -8.921333,2.493334 0.62,0.6 2.222667,-9 c 0.06667,-0.266667 -0.09733,-0.533333 -0.365334,-0.6 -0.268,-0.06667 -0.538666,0.09333 -0.605333,0.36 z"
     style="fill:#4a7ebb;fill-opacity:1;fill-rule:nonzero;stroke:none;stroke-width:1.33333"
     id="path973" /><text
     style="font-variant:normal;font-weight:normal;font-size:24px;font-family:Cantarell;-inkscape-font-specification:Cantarell;writing-mode:lr-tb;fill:#4d4d4d;fill-opacity:1;fill-rule:nonzero;stroke:none;stroke-width:1.33333;"
     id="text977"
     x="583.85931"
     y="210.61424"><tspan
       x="583.85931 596.65131 609.29932 628.47534 647.65131 659.14734 671.84332 684.44336 696.46735 702.03534 713.53131 718.95532 730.66736 740.4353 752.38733 762.53931 775.13934 782.84332 794.79535"
       y="210.61424"
       id="tspan975"
       style="stroke-width:1.33333;fill:#4d4d4d;">Commande à exécuter</tspan></text><path
     d="m 573.99267,203.15558 -215.05333,-59.12267 0.26667,-0.97333 215.05332,59.132 z m -208.78666,-52.64267 -7.08,-7.22667 9.77333,-2.6 c 0.26667,-0.0667 0.54667,0.0933 0.61333,0.36 0.0667,0.26667 -0.08,0.53334 -0.34666,0.61334 l -8.96,2.37333 0.22666,-0.84 6.48,6.62667 c 0.2,0.2 0.18667,0.52 0,0.70666 -0.2,0.2 -0.52,0.18667 -0.70666,-0.0133 z"
     style="fill:#4a7ebb;fill-opacity:1;fill-rule:nonzero;stroke:none;stroke-width:1.33333"
     id="path979" /><path
     d="m 45.660681,194.85824 -23.162666,-58.46533 0.929333,-0.37333 23.164,58.46933 z m -24.583999,-49.572 1.521333,-10 7.958666,6.24 c 0.217334,0.17334 0.256,0.49334 0.08533,0.70667 -0.170667,0.21333 -0.485334,0.25333 -0.702667,0.08 l -7.285333,-5.70667 0.804,-0.32 -1.392,9.14667 c -0.04267,0.28 -0.297333,0.46667 -0.570667,0.42667 -0.272,-0.04 -0.46,-0.29334 -0.418666,-0.57334 z"
     style="fill:#4a7ebb;fill-opacity:1;fill-rule:nonzero;stroke:none;stroke-width:1.33333"
     id="path981" /><text
     style="font-variant:normal;font-weight:normal;font-size:24px;font-family:Cantarell;-inkscape-font-specification:Cantarell;writing-mode:lr-tb;fill:#00b050;fill-opacity:1;fill-rule:nonzero;stroke:none;stroke-width:1.33333"
     id="text985"
     x="55.758015"
     y="218.61424"><tspan
       x="55.758015 69.030014 76.710014 84.390015 96.34201 108.87001 116.91001 122.31001 134.95801 147.55801 153.17401 160.854 172.35001 184.95001 197.62201 203.07001 214.42201 222.46201 227.86201 240.51001 253.11002 258.72601 271.37402 283.974 289.49402 294.89401 305.76599 317.11801 324.966 337.61401 343.03802 351.03 362.98199 368.59802 376.422 384.246"
       y="218.61424"
       id="tspan983"
       style="stroke-width:1.33333">Attention tabulation obligatoire !!!</tspan></text></svg>
