<?xml version="1.0" encoding="UTF-8" standalone="no"?>
<svg
   xmlns:dc="http://purl.org/dc/elements/1.1/"
   xmlns:cc="http://creativecommons.org/ns#"
   xmlns:rdf="http://www.w3.org/1999/02/22-rdf-syntax-ns#"
   xmlns:svg="http://www.w3.org/2000/svg"
   xmlns="http://www.w3.org/2000/svg"
   xmlns:sodipodi="http://sodipodi.sourceforge.net/DTD/sodipodi-0.dtd"
   xmlns:inkscape="http://www.inkscape.org/namespaces/inkscape"
   version="1.1"
   id="svg4261"
   xml:space="preserve"
   width="904.40131"
   height="455.62534"
   viewBox="0 0 904.40131 455.62534"
   sodipodi:docname="makefiles.svg"
   inkscape:version="1.0.1 (3bc2e813f5, 2020-09-07)"><sodipodi:namedview
     pagecolor="#ffffff"
     bordercolor="#666666"
     borderopacity="1"
     objecttolerance="10"
     gridtolerance="10"
     guidetolerance="10"
     inkscape:pageopacity="0"
     inkscape:pageshadow="2"
     inkscape:window-width="1676"
     inkscape:window-height="1014"
     id="namedview87"
     showgrid="false"
     inkscape:zoom="0.75298432"
     inkscape:cx="338.83167"
     inkscape:cy="185.23333"
     inkscape:window-x="0"
     inkscape:window-y="34"
     inkscape:window-maximized="0"
     inkscape:current-layer="svg4261" /><style
     id="style5022" /><metadata
     id="metadata4267"><rdf:RDF><cc:Work
         rdf:about=""><dc:format>image/svg+xml</dc:format><dc:type
           rdf:resource="http://purl.org/dc/dcmitype/StillImage" /><dc:title /></cc:Work></rdf:RDF></metadata><defs
     id="defs4265"><clipPath
       clipPathUnits="userSpaceOnUse"
       id="clipPath4277"><path
         d="M 0,1.2207e-4 H 720 V 540.00012 H 0 Z"
         clip-rule="evenodd"
         id="path4275" /></clipPath></defs><path
     d="M 0.49999985,256.20932 H 241.48666 V 159.27199 H 0.49999985 Z"
     style="fill:none;stroke:#0070c0;stroke-width:1;stroke-linecap:butt;stroke-linejoin:round;stroke-miterlimit:10;stroke-dasharray:none;stroke-opacity:1"
     id="path4305" /><text
     style="font-variant:normal;font-weight:normal;font-size:24px;font-family:Cantarell;-inkscape-font-specification:Cantarell;writing-mode:lr-tb;fill:#4d4d4d;fill-opacity:1;fill-rule:nonzero;stroke:none;stroke-width:1.33333;"
     id="text4309"
     x="78.493332"
     y="186.55598"><tspan
       x="78.493332 83.94133 103.11733 114.61333 125.91733 137.86934 147.25333 153.34932"
       y="186.55598"
       id="tspan4307"
       style="stroke-width:1.33333;fill:#4d4d4d;">images.c</tspan></text><text
     style="font-variant:normal;font-weight:normal;font-size:24px;font-family:Cantarell;-inkscape-font-specification:Cantarell;writing-mode:lr-tb;fill:#4d4d4d;fill-opacity:1;fill-rule:nonzero;stroke:none;stroke-width:1.33333;"
     id="text4313"
     x="44.09333"
     y="215.35599"><tspan
       x="44.09333 59.237331 71.26133 79.253334 91.20533 96.629333 102.14933 114.10133 123.55733 128.98132 134.50133 153.67734 165.17332 176.35733 188.30933"
       y="215.35599"
       id="tspan4311"
       style="stroke-width:1.33333;fill:#4d4d4d;">Gère les images</tspan></text><text
     style="font-variant:normal;font-weight:normal;font-size:24px;font-family:Cantarell;-inkscape-font-specification:Cantarell;writing-mode:lr-tb;fill:#4d4d4d;fill-opacity:1;fill-rule:nonzero;stroke:none;stroke-width:1.33333;"
     id="text4317"
     x="11.133333"
     y="244.18266"><tspan
       x="11.133333 18.405333 29.685331 36.88533 44.205334 49.725334 59.757328 72.35733 83.853333 95.157333 107.10934 113.03733 118.60532 131.25333 143.85333 155.85333 168.45332 174.45332"
       y="244.18266"
       id="tspan4315"
       style="stroke-width:1.33333;fill:#4d4d4d;">(affichage, open, </tspan></text><text
     style="font-variant:normal;font-weight:normal;font-size:24px;font-family:Cantarell;-inkscape-font-specification:Cantarell;writing-mode:lr-tb;fill:#4d4d4d;fill-opacity:1;fill-rule:nonzero;stroke:none;stroke-width:1.33333;"
     id="text4321"
     x="180.28799"
     y="244.18266"><tspan
       x="180.28799 189.672 200.92799 211.65599"
       y="244.18266"
       id="tspan4319"
       style="stroke-width:1.33333;fill:#4d4d4d;">save</tspan></text><text
     style="font-variant:normal;font-weight:normal;font-size:24px;font-family:Cantarell;-inkscape-font-specification:Cantarell;writing-mode:lr-tb;fill:#4d4d4d;fill-opacity:1;fill-rule:nonzero;stroke:none;stroke-width:1.33333;"
     id="text4325"
     x="223.64799"
     y="244.18266"><tspan
       x="223.64799"
       y="244.18266"
       id="tspan4323"
       style="fill:#4d4d4d;stroke-width:1.33333;">)</tspan></text><path
     d="M 646.86132,243.12932 H 903.90131 V 175.27333 H 646.86132 Z"
     style="fill:none;stroke:#0070c0;stroke-width:1;stroke-linecap:butt;stroke-linejoin:round;stroke-miterlimit:10;stroke-dasharray:none;stroke-opacity:1"
     id="path4327" /><text
     style="font-variant:normal;font-weight:normal;font-size:24px;font-family:Cantarell;-inkscape-font-specification:Cantarell;writing-mode:lr-tb;fill:#4d4d4d;fill-opacity:1;fill-rule:nonzero;stroke:none;stroke-width:1.33333;"
     id="text4331"
     x="752.72797"
     y="202.55598"><tspan
       x="752.72797 764.03198 776.70398 782.15198 788.19995"
       y="202.55598"
       id="tspan4329"
       style="stroke-width:1.33333;fill:#4d4d4d;">gui.c</tspan></text><text
     style="font-variant:normal;font-weight:normal;font-size:24.032px;font-family:Cantarell;-inkscape-font-specification:Cantarell;writing-mode:lr-tb;fill:#4d4d4d;fill-opacity:1;fill-rule:nonzero;stroke:none;stroke-width:1.33333;"
     id="text4335"
     x="657.84796"
     y="231.38266"><tspan
       x="657.84796 673.01215 680.89465 692.40601 705.02277 717.63959 723.16693 733.04413 744.55542"
       y="231.38266"
       id="tspan4333"
       style="stroke-width:1.33333;fill:#4d4d4d;">Graphical</tspan></text><text
     style="font-variant:normal;font-weight:normal;font-size:24.032px;font-family:Cantarell;-inkscape-font-specification:Cantarell;writing-mode:lr-tb;fill:#4d4d4d;fill-opacity:1;fill-rule:nonzero;stroke:none;stroke-width:1.33333;"
     id="text4339"
     x="755.60797"
     y="231.38266"><tspan
       x="755.60797 771.0365 780.43304 792.401 800.78815 806.21936 812.27545 824.724 832.41425 844.3822 852.76935 859.61847 871.12982 881.22327"
       y="231.38266"
       id="tspan4337"
       style="stroke-width:1.33333;fill:#4d4d4d;">User Interface</tspan></text><path
     d="M 332.95466,68.355994 H 565.52799 V 0.49999613 H 332.95466 Z"
     style="fill:none;stroke:#0070c0;stroke-width:1;stroke-linecap:butt;stroke-linejoin:round;stroke-miterlimit:10;stroke-dasharray:none;stroke-opacity:1"
     id="path4341" /><text
     style="font-variant:normal;font-weight:normal;font-size:24.032px;font-family:Cantarell;-inkscape-font-specification:Cantarell;writing-mode:lr-tb;fill:#4d4d4d;fill-opacity:1;fill-rule:nonzero;stroke:none;stroke-width:1.33333;"
     id="text4345"
     x="416.728"
     y="27.769329"><tspan
       x="416.728 435.92957 447.44089 452.89615 465.51294 471.569"
       y="27.769329"
       id="tspan4343"
       style="stroke-width:1.33333;fill:#4d4d4d;">main.c</tspan></text><text
     style="font-variant:normal;font-weight:normal;font-size:24px;font-family:Cantarell;-inkscape-font-specification:Cantarell;writing-mode:lr-tb;fill:#4d4d4d;fill-opacity:1;fill-rule:nonzero;stroke:none;stroke-width:1.33333;"
     id="text4349"
     x="343.608"
     y="56.569328"><tspan
       x="343.608 355.91998 363.91199 376.56 387.86398 395.75998 407.25598 426.43198 445.608 457.65601 463.07999 475.67999 487.70398 493.12799 505.72797 517.75201 527.13599 536.61597 542.06396"
       y="56.569328"
       id="tspan4347"
       style="stroke-width:1.33333;fill:#4d4d4d;">Programme de dessin</tspan></text><path
     d="m 291.60799,416.50265 h 316.29333 v -67.856 H 291.60799 Z"
     style="fill:none;stroke:#0070c0;stroke-width:1;stroke-linecap:butt;stroke-linejoin:round;stroke-miterlimit:10;stroke-dasharray:none;stroke-opacity:1"
     id="path4351" /><text
     style="font-variant:normal;font-weight:normal;font-size:24px;font-family:Cantarell;-inkscape-font-specification:Cantarell;writing-mode:lr-tb;fill:#4d4d4d;fill-opacity:1;fill-rule:nonzero;stroke:none;stroke-width:1.33333;"
     id="text4355"
     x="401.1813"
     y="375.95599"><tspan
       x="401.1813 412.48532 420.38132 431.87732 444.47733 457.14932 462.59732 472.67731 482.06131 488.1813"
       y="375.95599"
       id="tspan4353"
       style="stroke-width:1.33333;fill:#4d4d4d;">graphics.c</tspan></text><text
     style="font-variant:normal;font-weight:normal;font-size:24.032px;font-family:Cantarell;-inkscape-font-specification:Cantarell;writing-mode:lr-tb;fill:#4d4d4d;fill-opacity:1;fill-rule:nonzero;stroke:none;stroke-width:1.33333;"
     id="text4359"
     x="302.91467"
     y="404.79065"><tspan
       x="302.91467 314.76242 326.73038 335.11755 354.31912 366.1188 374.16953 379.6969 392.31369 404.28162 409.71286 422.40176 434.36969 443.81427 453.21078 458.73813 471.35495 483.32288 491.71005 497.14127 506.53778 519.1546 527.54175 532.97296 538.38019 542.53772 554.50568 564.6712 572.45758 583.96887"
       y="404.79065"
       id="tspan4357"
       style="stroke-width:1.33333;fill:#4d4d4d;">Permet de dessiner sur l’écran</tspan></text><path
     d="M 0.49999985,159.27599 H 241.48666 V 120.50133 H 0.49999985 Z"
     style="fill:none;stroke:#7030a0;stroke-width:1;stroke-linecap:butt;stroke-linejoin:round;stroke-miterlimit:10;stroke-dasharray:none;stroke-opacity:1"
     id="path4361" /><text
     style="font-variant:normal;font-weight:normal;font-size:24px;font-family:Cantarell;-inkscape-font-specification:Cantarell;writing-mode:lr-tb;fill:#4d4d4d;fill-opacity:1;fill-rule:nonzero;stroke:none;stroke-width:1.33333;"
     id="text4365"
     x="77.213333"
     y="147.76933"><tspan
       x="77.213333 82.661331 101.83733 113.33333 124.63733 136.58932 145.97333 152.06932"
       y="147.76933"
       id="tspan4363"
       style="stroke-width:1.33333;fill:#4d4d4d;">images.h</tspan></text><path
     d="M 646.86132,175.27599 H 903.90131 V 136.50133 H 646.86132 Z"
     style="fill:none;stroke:#7030a0;stroke-width:1;stroke-linecap:butt;stroke-linejoin:round;stroke-miterlimit:10;stroke-dasharray:none;stroke-opacity:1"
     id="path4367" /><text
     style="font-variant:normal;font-weight:normal;font-size:24px;font-family:Cantarell;-inkscape-font-specification:Cantarell;writing-mode:lr-tb;fill:#4d4d4d;fill-opacity:1;fill-rule:nonzero;stroke:none;stroke-width:1.33333;"
     id="text4371"
     x="751.448"
     y="163.76933"><tspan
       x="751.448"
       y="163.76933"
       id="tspan4369"
       style="fill:#4d4d4d;stroke-width:1.33333;">g</tspan></text><text
     style="font-variant:normal;font-weight:normal;font-size:24px;font-family:Cantarell;-inkscape-font-specification:Cantarell;writing-mode:lr-tb;fill:#4d4d4d;fill-opacity:1;fill-rule:nonzero;stroke:none;stroke-width:1.33333;"
     id="text4375"
     x="762.80798"
     y="163.76933"><tspan
       x="762.80798 775.40796 780.92798 786.97595"
       y="163.76933"
       id="tspan4373"
       style="stroke-width:1.33333;fill:#4d4d4d;">ui.h</tspan></text><path
     d="M 291.60799,455.12532 H 608.31465 V 416.35065 H 291.60799 Z"
     style="fill:none;stroke:#604a7b;stroke-width:1;stroke-linecap:butt;stroke-linejoin:round;stroke-miterlimit:10;stroke-dasharray:none;stroke-opacity:1"
     id="path4377" /><text
     style="font-variant:normal;font-weight:normal;font-size:24.032px;font-family:Cantarell;-inkscape-font-specification:Cantarell;writing-mode:lr-tb;fill:#4d4d4d;fill-opacity:1;fill-rule:nonzero;stroke:none;stroke-width:1.33333;"
     id="text4381"
     x="400.15466"
     y="443.70264"><tspan
       x="400.15466 411.52179 419.35623 430.86755 443.55646 456.17325 461.70062 471.746 481.14249 487.19855"
       y="443.70264"
       id="tspan4379"
       style="stroke-width:1.33333;fill:#4d4d4d;">graphics.h</tspan></text><path
     d="m 291.24799,436.08265 -169.93333,-178.80666 0.72,-0.69333 169.93333,178.81066 z m -167.93333,-170.01999 -2.32,-9.85334 9.72,2.82667 c 0.26667,0.08 0.41334,0.36 0.33334,0.62667 -0.08,0.25333 -0.34667,0.41333 -0.61334,0.33333 l -8.89333,-2.58667 0.62667,-0.58666 2.12,9.01333 c 0.0667,0.26667 -0.0933,0.53333 -0.37334,0.6 -0.26666,0.0667 -0.53333,-0.10667 -0.6,-0.37333 z"
     style="fill:#7030a0;fill-opacity:1;fill-rule:nonzero;stroke:none;stroke-width:1.33333"
     id="path4383" /><path
     d="m 608.70132,436.06532 166.41333,-191.856 -0.76,-0.65333 -166.41333,191.85466 z m 164.79999,-182.98933 1.88,-9.94667 -9.58666,3.26667 c -0.25334,0.0933 -0.4,0.37333 -0.30667,0.62667 0.0933,0.26666 0.37333,0.41333 0.64,0.32 l 8.76,-2.98667 -0.65333,-0.57333 -1.70667,9.10666 c -0.0533,0.26667 0.12,0.53334 0.38667,0.58667 0.28,0.0533 0.53333,-0.13333 0.58666,-0.4 z"
     style="fill:#7030a0;fill-opacity:1;fill-rule:nonzero;stroke:none;stroke-width:1.33333"
     id="path4385" /><path
     d="m 121.18133,120.96933 211.05333,-85.706668 -0.38667,-0.92 L 120.808,120.03599 Z m 205.6,-78.533335 6.17333,-8 -10.01333,-1.44 c -0.26667,-0.04 -0.52,0.146667 -0.56,0.426667 -0.04,0.266667 0.14666,0.52 0.42666,0.56 l 9.16,1.32 -0.32,-0.8 -5.65333,7.333333 c -0.17333,0.213333 -0.13333,0.533333 0.08,0.693333 0.22667,0.173334 0.53333,0.133334 0.70667,-0.09333 z"
     style="fill:#7030a0;fill-opacity:1;fill-rule:nonzero;stroke:none;stroke-width:1.33333"
     id="path4387" /><path
     d="m 775.15465,136.95599 -208.96,-101.639995 0.44,-0.906666 208.96,101.640001 z m -204,-94.119995 -5.62666,-8.4 10.09333,-0.773333 c 0.26667,-0.01333 0.50667,0.186667 0.53333,0.466667 0.0133,0.28 -0.18666,0.52 -0.46666,0.533333 l -9.22667,0.693333 0.37333,-0.773333 5.14667,7.693333 c 0.16,0.24 0.0933,0.546667 -0.13333,0.693333 -0.22667,0.16 -0.53334,0.09333 -0.69334,-0.133333 z"
     style="fill:#7030a0;fill-opacity:1;fill-rule:nonzero;stroke:none;stroke-width:1.33333"
     id="path4389" /><path
     d="m 274.28799,227.12932 h 107.54 v -38.77466 h -107.54 z"
     style="fill:none;stroke:#77933c;stroke-width:1;stroke-linecap:butt;stroke-linejoin:round;stroke-miterlimit:10;stroke-dasharray:none;stroke-opacity:1"
     id="path4391" /><text
     style="font-variant:normal;font-weight:normal;font-size:24px;font-family:Cantarell;-inkscape-font-specification:Cantarell;writing-mode:lr-tb;fill:#4d4d4d;fill-opacity:1;fill-rule:nonzero;stroke:none;stroke-width:1.33333;"
     id="text4395"
     x="283.92798"
     y="215.63599"><tspan
       x="283.92798"
       y="215.63599"
       id="tspan4393"
       style="fill:#4d4d4d;stroke-width:1.33333;">i</tspan></text><text
     style="font-variant:normal;font-weight:normal;font-size:24px;font-family:Cantarell;-inkscape-font-specification:Cantarell;writing-mode:lr-tb;fill:#4d4d4d;fill-opacity:1;fill-rule:nonzero;stroke:none;stroke-width:1.33333;"
     id="text4399"
     x="289.36798"
     y="215.63599"><tspan
       x="289.36798 308.54398 320.03998 331.34399 343.29599 352.67999 358.776"
       y="215.63599"
       id="tspan4397"
       style="stroke-width:1.33333;fill:#4d4d4d;">mages.o</tspan></text><path
     d="M 389.22132,304.50266 H 509.25599 V 265.72799 H 389.22132 Z"
     style="fill:none;stroke:#77933c;stroke-width:1;stroke-linecap:butt;stroke-linejoin:round;stroke-miterlimit:10;stroke-dasharray:none;stroke-opacity:1"
     id="path4401" /><text
     style="font-variant:normal;font-weight:normal;font-size:24.032px;font-family:Cantarell;-inkscape-font-specification:Cantarell;writing-mode:lr-tb;fill:#4d4d4d;fill-opacity:1;fill-rule:nonzero;stroke:none;stroke-width:1.33333;"
     id="text4405"
     x="398.91467"
     y="293.04932"><tspan
       x="398.91467 410.23373 418.11624 429.62756 442.24435 454.86115 460.38852 470.4339 479.83041 485.88647"
       y="293.04932"
       id="tspan4403"
       style="stroke-width:1.33333;fill:#4d4d4d;">graphics.o</tspan></text><path
     d="m 543.90132,228.59599 h 68.024 v -38.77467 h -68.024 z"
     style="fill:none;stroke:#77933c;stroke-width:1;stroke-linecap:butt;stroke-linejoin:round;stroke-miterlimit:10;stroke-dasharray:none;stroke-opacity:1"
     id="path4407" /><text
     style="font-variant:normal;font-weight:normal;font-size:24px;font-family:Cantarell;-inkscape-font-specification:Cantarell;writing-mode:lr-tb;fill:#4d4d4d;fill-opacity:1;fill-rule:nonzero;stroke:none;stroke-width:1.33333;"
     id="text4411"
     x="553.59467"
     y="217.116"><tspan
       x="553.59467 564.89862 577.57068 583.01868 589.06665"
       y="217.116"
       id="tspan4409"
       style="stroke-width:1.33333;fill:#4d4d4d;">gui.o</tspan></text><path
     d="m 241.48799,208.24932 h 31.8 v -1 h -31.8 z m 24.05334,4.6 8.74666,-5.10666 -8.74666,-5.09334 c -0.24,-0.14666 -0.54667,-0.0667 -0.68,0.17334 -0.13334,0.24 -0.0533,0.54666 0.18666,0.69333 l 8,4.66667 v -0.86667 l -8,4.66667 c -0.24,0.13333 -0.32,0.44 -0.18666,0.68 0.13333,0.24 0.44,0.32 0.68,0.18666 z"
     style="fill:#4a7ebb;fill-opacity:1;fill-rule:nonzero;stroke:none;stroke-width:1.33333"
     id="path4413" /><path
     d="m 646.86132,209.70266 h -33.94667 v -1 h 33.94667 z m -26.2,4.6 -8.73334,-5.09334 8.73334,-5.10666 c 0.24,-0.13334 0.54666,-0.0533 0.68,0.18666 0.14666,0.24 0.0667,0.54667 -0.17334,0.68 l -8,4.66667 v -0.86667 l 8,4.66667 c 0.24,0.14667 0.32,0.45333 0.17334,0.69333 -0.13334,0.24 -0.44,0.32 -0.68,0.17334 z"
     style="fill:#4a7ebb;fill-opacity:1;fill-rule:nonzero;stroke:none;stroke-width:1.33333"
     id="path4415" /><path
     d="m 449.26132,348.64932 -0.50666,-43.14666 1,-0.0133 0.50666,43.14667 z m -5.01333,-35.34667 5,-8.79999 5.2,8.67999 c 0.13333,0.24 0.0533,0.54667 -0.17333,0.68 -0.24,0.14667 -0.54667,0.0667 -0.69334,-0.17333 l -4.76,-7.93333 0.86667,-0.0133 -4.57333,8.05333 c -0.13334,0.24 -0.44,0.32 -0.68,0.18666 -0.24,-0.13333 -0.32,-0.44 -0.18667,-0.68 z"
     style="fill:#4a7ebb;fill-opacity:1;fill-rule:nonzero;stroke:none;stroke-width:1.33333"
     id="path4417" /><path
     d="m 732.11465,339.39599 h 31.21333 v 1 h -31.21333 z m 23.46666,-4.6 8.73334,5.09333 -8.73334,5.09333 c -0.24,0.14667 -0.54666,0.0667 -0.68,-0.17333 -0.14666,-0.24 -0.0667,-0.54667 0.17334,-0.68 l 8,-4.66667 v 0.85334 l -8,-4.66667 c -0.24,-0.13333 -0.32,-0.44 -0.17334,-0.68 0.13334,-0.24 0.44,-0.32 0.68,-0.17333 z"
     style="fill:#7030a0;fill-opacity:1;fill-rule:nonzero;stroke:none;stroke-width:1.33333"
     id="path4419" /><path
     d="m 732.11465,388.61465 h 31.21333 v 1 h -31.21333 z m 23.46666,-4.59866 8.73334,5.09866 -8.73334,5.09867 c -0.24,0.14 -0.54666,0.0587 -0.68,-0.18 -0.14666,-0.23867 -0.0667,-0.544 0.17334,-0.684 l 8,-4.66667 v 0.864 l -8,-4.66666 c -0.24,-0.13867 -0.32,-0.44534 -0.17334,-0.684 0.13334,-0.23867 0.44,-0.31867 0.68,-0.18 z"
     style="fill:#4a7ebb;fill-opacity:1;fill-rule:nonzero;stroke:none;stroke-width:1.33333"
     id="path4421" /><path
     d="m 732.11465,435.39065 h 31.21333 v 1 h -31.21333 z m 23.46666,-4.59866 8.73334,5.09866 -8.73334,5.09867 c -0.24,0.13867 -0.54666,0.0573 -0.68,-0.18 -0.14666,-0.23867 -0.0667,-0.54533 0.17334,-0.684 l 8,-4.66667 v 0.864 l -8,-4.668 c -0.24,-0.13866 -0.32,-0.44533 -0.17334,-0.68266 0.13334,-0.23867 0.44,-0.32 0.68,-0.18 z"
     style="fill:#9bbb59;fill-opacity:1;fill-rule:nonzero;stroke:none;stroke-width:1.33333"
     id="path4423" /><text
     style="font-variant:normal;font-weight:normal;font-size:24px;font-family:Cantarell;-inkscape-font-specification:Cantarell;writing-mode:lr-tb;fill:#4d4d4d;fill-opacity:1;fill-rule:nonzero;stroke:none;stroke-width:1.33333;"
     id="text4427"
     x="781.84796"
     y="347.836"><tspan
       x="781.84796 787.29596 799.896 810.04797 815.448 828.04797 840.69598"
       y="347.836"
       id="tspan4425"
       style="stroke-width:1.33333;fill:#4d4d4d;">include</tspan></text><text
     style="font-variant:normal;font-weight:normal;font-size:24px;font-family:Cantarell;-inkscape-font-specification:Cantarell;writing-mode:lr-tb;fill:#4d4d4d;fill-opacity:1;fill-rule:nonzero;stroke:none;stroke-width:1.33333;"
     id="text4431"
     x="781.84796"
     y="397.04666"><tspan
       x="781.84796 791.76001 804.40796 823.58398 836.18396 841.70398 847.12799 859.07996 864.86395 872.71198"
       y="397.04666"
       id="tspan4429"
       style="stroke-width:1.33333;fill:#4d4d4d;">compile to</tspan></text><text
     style="font-variant:normal;font-weight:normal;font-size:24px;font-family:Cantarell;-inkscape-font-specification:Cantarell;writing-mode:lr-tb;fill:#4d4d4d;fill-opacity:1;fill-rule:nonzero;stroke:none;stroke-width:1.33333;"
     id="text4435"
     x="781.84796"
     y="443.83066"><tspan
       x="781.84796 787.29596 792.74396 805.34399"
       y="443.83066"
       id="tspan4433"
       style="stroke-width:1.33333;fill:#4d4d4d;">link</tspan></text><path
     d="m 448.74132,68.355994 v 30.56 h 1 v -30.56 z m -4.6,22.813333 5.10667,8.733333 5.09333,-8.733333 c 0.13334,-0.24 0.0533,-0.546666 -0.18666,-0.693333 -0.22667,-0.133333 -0.53334,-0.05333 -0.68,0.186667 l -4.66667,7.999999 h 0.86667 l -4.66667,-7.999999 c -0.13333,-0.24 -0.44,-0.32 -0.68,-0.186667 -0.24,0.146667 -0.32,0.453333 -0.18667,0.693333 z"
     style="fill:#4a7ebb;fill-opacity:1;fill-rule:nonzero;stroke:none;stroke-width:1.33333"
     id="path4437" /><path
     d="m 405.47466,138.67599 h 87.54666 V 99.901327 h -87.54666 z"
     style="fill:none;stroke:#9bbb59;stroke-width:1;stroke-linecap:butt;stroke-linejoin:round;stroke-miterlimit:10;stroke-dasharray:none;stroke-opacity:1"
     id="path4439" /><text
     style="font-variant:normal;font-weight:normal;font-size:24px;font-family:Cantarell;-inkscape-font-specification:Cantarell;writing-mode:lr-tb;fill:#4d4d4d;fill-opacity:1;fill-rule:nonzero;stroke:none;stroke-width:1.33333;"
     id="text4443"
     x="415.48798"
     y="127.15599"><tspan
       x="415.48798 434.664 446.16 451.67999 464.28 470.328"
       y="127.15599"
       id="tspan4441"
       style="stroke-width:1.33333;fill:#4d4d4d;">main.o</tspan></text><path
     d="m 415.90132,228.87599 h 69.99067 v -38.77467 h -69.99067 z"
     style="fill:#92d050;fill-opacity:1;fill-rule:evenodd;stroke:none;stroke-width:1.33333"
     id="path4445" /><path
     d="m 415.90132,228.87599 h 69.99067 v -38.77467 h -69.99067 z"
     style="fill:none;stroke:#0070c0;stroke-width:1;stroke-linecap:butt;stroke-linejoin:round;stroke-miterlimit:10;stroke-dasharray:none;stroke-opacity:1"
     id="path4447" /><text
     style="font-variant:normal;font-weight:normal;font-size:24px;font-family:Cantarell;-inkscape-font-specification:Cantarell;writing-mode:lr-tb;fill:#000000;fill-opacity:1;fill-rule:nonzero;stroke:none;stroke-width:1.33333"
     id="text4451"
     x="425.98132"
     y="217.396"><tspan
       x="425.98132 438.58133 450.07733 455.59732 468.05331"
       y="217.396"
       id="tspan4449"
       style="stroke-width:1.33333">paint</tspan></text><path
     d="m 449.74132,138.66266 1.62667,50.44 -1,0.0267 -1.62667,-50.43999 z m 5.97334,42.54666 -4.81334,8.89334 -5.38666,-8.57334 c -0.14667,-0.22666 -0.0667,-0.53333 0.16,-0.68 0.24,-0.14666 0.54666,-0.08 0.69333,0.16 l 4.92,7.84 -0.86667,0.0267 4.41334,-8.14667 c 0.13333,-0.24 0.42666,-0.33333 0.68,-0.2 0.24,0.13334 0.33333,0.44 0.2,0.68 z"
     style="fill:#9bbb59;fill-opacity:1;fill-rule:nonzero;stroke:none;stroke-width:1.33333"
     id="path4453" /><path
     d="m 381.84799,207.24932 33.09333,1.69334 -0.0533,1 -33.09333,-1.69334 z m 25.58667,-3.29333 8.46666,5.53333 -8.98666,4.65334 c -0.24,0.12 -0.54667,0.0267 -0.68,-0.21334 -0.12,-0.25333 -0.0267,-0.56 0.21333,-0.68 l 8.24,-4.25333 -0.0533,0.86667 -7.74667,-5.06667 c -0.22667,-0.16 -0.29333,-0.46667 -0.14667,-0.69333 0.14667,-0.24 0.46667,-0.29334 0.69334,-0.14667 z"
     style="fill:#9bbb59;fill-opacity:1;fill-rule:nonzero;stroke:none;stroke-width:1.33333"
     id="path4455" /><path
     d="m 449.74132,265.75599 1.61334,-35.86667 -1,-0.04 -1.61334,35.85334 z m 5.85334,-27.92 -4.69334,-8.96 -5.49333,8.50667 c -0.14667,0.22666 -0.08,0.54666 0.14667,0.69333 0.24,0.14667 0.54666,0.08 0.69333,-0.14667 l 5.02667,-7.78666 -0.86667,-0.04 4.30667,8.2 c 0.12,0.24 0.42666,0.33333 0.66666,0.21333 0.25334,-0.13333 0.34667,-0.42667 0.21334,-0.68 z"
     style="fill:#9bbb59;fill-opacity:1;fill-rule:nonzero;stroke:none;stroke-width:1.33333"
     id="path4457" /><path
     d="m 543.90132,208.70266 -57.02667,0.28 0.0133,1 57.01333,-0.28 z m -49.29333,-4.34667 -8.72,5.13333 8.77333,5.05334 c 0.22667,0.14666 0.53333,0.0667 0.68,-0.17334 0.13333,-0.24 0.0533,-0.54666 -0.18667,-0.69333 l -8.02666,-4.62667 0.0133,0.86667 7.97333,-4.70667 c 0.24,-0.13333 0.32,-0.44 0.17334,-0.68 -0.13334,-0.24 -0.44,-0.32 -0.68,-0.17333 z"
     style="fill:#9bbb59;fill-opacity:1;fill-rule:nonzero;stroke:none;stroke-width:1.33333"
     id="path4459" /></svg>
