<?xml version="1.0" encoding="UTF-8" standalone="no"?>
<svg
   xmlns:dc="http://purl.org/dc/elements/1.1/"
   xmlns:cc="http://creativecommons.org/ns#"
   xmlns:rdf="http://www.w3.org/1999/02/22-rdf-syntax-ns#"
   xmlns:svg="http://www.w3.org/2000/svg"
   xmlns="http://www.w3.org/2000/svg"
   xmlns:sodipodi="http://sodipodi.sourceforge.net/DTD/sodipodi-0.dtd"
   xmlns:inkscape="http://www.inkscape.org/namespaces/inkscape"
   viewBox="0 0 932.62976 254.30733"
   height="254.30733"
   width="932.62976"
   xml:space="preserve"
   id="svg1219"
   version="1.1"
   sodipodi:docname="mmap.svg"
   inkscape:version="1.0.1 (3bc2e813f5, 2020-09-07)"><sodipodi:namedview
     pagecolor="#ffffff"
     bordercolor="#666666"
     borderopacity="1"
     objecttolerance="10"
     gridtolerance="10"
     guidetolerance="10"
     inkscape:pageopacity="0"
     inkscape:pageshadow="2"
     inkscape:window-width="1676"
     inkscape:window-height="1014"
     id="namedview75"
     showgrid="false"
     inkscape:zoom="2.9207733"
     inkscape:cx="320.05086"
     inkscape:cy="107.12083"
     inkscape:window-x="1680"
     inkscape:window-y="34"
     inkscape:window-maximized="0"
     inkscape:current-layer="svg1219"
     inkscape:document-rotation="0" /><metadata
     id="metadata1225"><rdf:RDF><cc:Work
         rdf:about=""><dc:format>image/svg+xml</dc:format><dc:type
           rdf:resource="http://purl.org/dc/dcmitype/StillImage" /><dc:title /></cc:Work></rdf:RDF></metadata><defs
     id="defs1223"><marker
   style="overflow:visible"
   id="marker2976"
   refX="0"
   refY="0"
   orient="auto"><path
     transform="matrix(0.4,0,0,0.4,4,0)"
     style="fill:#000000;fill-opacity:1;fill-rule:evenodd;stroke:#000000;stroke-width:1.00000003pt;stroke-opacity:1"
     d="M 0,0 5,-5 -12.5,0 5,5 Z"
     id="path2974" /></marker><marker
   style="overflow:visible"
   id="Arrow1Mend"
   refX="0"
   refY="0"
   orient="auto"><path
     transform="matrix(-0.4,0,0,-0.4,-4,0)"
     style="fill:#000000;fill-opacity:1;fill-rule:evenodd;stroke:#000000;stroke-width:1.00000003pt;stroke-opacity:1"
     d="M 0,0 5,-5 -12.5,0 5,5 Z"
     id="path2631" /></marker><marker
   style="overflow:visible"
   id="Arrow1Mstart"
   refX="0"
   refY="0"
   orient="auto"><path
     transform="matrix(0.4,0,0,0.4,4,0)"
     style="fill:#000000;fill-opacity:1;fill-rule:evenodd;stroke:#000000;stroke-width:1.00000003pt;stroke-opacity:1"
     d="M 0,0 5,-5 -12.5,0 5,5 Z"
     id="path2628" /></marker><marker
   style="overflow:visible"
   id="Arrow1Lstart"
   refX="0"
   refY="0"
   orient="auto"><path
     transform="matrix(0.8,0,0,0.8,10,0)"
     style="fill:#000000;fill-opacity:1;fill-rule:evenodd;stroke:#000000;stroke-width:1.00000003pt;stroke-opacity:1"
     d="M 0,0 5,-5 -12.5,0 5,5 Z"
     id="path2622" /></marker><clipPath
   id="clipPath1235"
   clipPathUnits="userSpaceOnUse"><path
     style="clip-rule:evenodd"
     id="path1233"
     d="M 0,0.028 H 719.971 V 539.999 H 0 Z" /></clipPath><marker
   style="overflow:visible"
   id="marker2976-0"
   refX="0"
   refY="0"
   orient="auto"><path
     transform="matrix(0.4,0,0,0.4,4,0)"
     style="fill:#000000;fill-opacity:1;fill-rule:evenodd;stroke:#000000;stroke-width:1.00000003pt;stroke-opacity:1"
     d="M 0,0 5,-5 -12.5,0 5,5 Z"
     id="path2974-6" /></marker><marker
   style="overflow:visible"
   id="Arrow1Mend-8"
   refX="0"
   refY="0"
   orient="auto"><path
     transform="matrix(-0.4,0,0,-0.4,-4,0)"
     style="fill:#000000;fill-opacity:1;fill-rule:evenodd;stroke:#000000;stroke-width:1.00000003pt;stroke-opacity:1"
     d="M 0,0 5,-5 -12.5,0 5,5 Z"
     id="path2631-9" /></marker><marker
   style="overflow:visible"
   id="marker2976-0-6"
   refX="0"
   refY="0"
   orient="auto"><path
     transform="matrix(0.4,0,0,0.4,4,0)"
     style="fill:#000000;fill-opacity:1;fill-rule:evenodd;stroke:#000000;stroke-width:1.00000003pt;stroke-opacity:1"
     d="M 0,0 5,-5 -12.5,0 5,5 Z"
     id="path2974-6-6" /></marker><marker
   style="overflow:visible"
   id="Arrow1Mend-8-4"
   refX="0"
   refY="0"
   orient="auto"><path
     transform="matrix(-0.4,0,0,-0.4,-4,0)"
     style="fill:#000000;fill-opacity:1;fill-rule:evenodd;stroke:#000000;stroke-width:1.00000003pt;stroke-opacity:1"
     d="M 0,0 5,-5 -12.5,0 5,5 Z"
     id="path2631-9-9" /></marker>


<marker
   style="overflow:visible"
   refX="0"
   refY="0"
   orient="auto"
   id="marker29767910"
   inkscape:stockid="marker29767910"><path
     transform="matrix(0.4,0,0,0.4,4,0)"
     style="fill:#b3b3b3;fill-opacity:1.0;fill-rule:evenodd;stroke:#b3b3b3;stroke-width:1.00000003pt;stroke-opacity:1.0"
     d="M 0,0 5,-5 -12.5,0 5,5 Z"
     id="path1055" /></marker><marker
   style="overflow:visible"
   refX="0"
   refY="0"
   orient="auto"
   id="Arrow1Mend9592"
   inkscape:stockid="Arrow1Mend9592"><path
     transform="matrix(-0.4,0,0,-0.4,-4,0)"
     style="fill:#b3b3b3;fill-opacity:1.0;fill-rule:evenodd;stroke:#b3b3b3;stroke-width:1.00000003pt;stroke-opacity:1.0"
     d="M 0,0 5,-5 -12.5,0 5,5 Z"
     id="path1058" /></marker><marker
   style="overflow:visible"
   refX="0"
   refY="0"
   orient="auto"
   id="marker2976-0-69990"
   inkscape:stockid="marker2976-0-69990"><path
     transform="matrix(0.4,0,0,0.4,4,0)"
     style="fill:#cccccc;fill-opacity:1.0;fill-rule:evenodd;stroke:#cccccc;stroke-width:1.00000003pt;stroke-opacity:1.0"
     d="M 0,0 5,-5 -12.5,0 5,5 Z"
     id="path1243" /></marker><marker
   style="overflow:visible"
   refX="0"
   refY="0"
   orient="auto"
   id="Arrow1Mend-8-48983"
   inkscape:stockid="Arrow1Mend-8-48983"><path
     transform="matrix(-0.4,0,0,-0.4,-4,0)"
     style="fill:#cccccc;fill-opacity:1.0;fill-rule:evenodd;stroke:#cccccc;stroke-width:1.00000003pt;stroke-opacity:1.0"
     d="M 0,0 5,-5 -12.5,0 5,5 Z"
     id="path1246" /></marker>


</defs><path
     id="path1241"
     style="fill:#b9cde5;fill-opacity:1;fill-rule:evenodd;stroke:none;stroke-width:1.33333"
     d="M 193.40902,155.15237 H 69.478359 V 139.35504 H 317.30235 v 15.79733 z" /><g
     id="g1243"
     transform="matrix(1.3333333,0,0,-1.3333333,-18.470972,339.36703)"><path
       id="path1245"
       style="fill:none;stroke:#3a5f8b;stroke-width:2.01256;stroke-linecap:butt;stroke-linejoin:round;stroke-miterlimit:10;stroke-dasharray:none;stroke-opacity:1"
       d="M 158.91,138.161 H 65.962 v 11.848 H 251.83 v -11.848 z" /></g><path
     id="path1247"
     style="fill:#1f497d;fill-opacity:1;fill-rule:evenodd;stroke:none;stroke-width:1.33333"
     d="M 193.40902,139.20304 H 69.478359 V 59.379037 H 317.30235 v 79.824003 z" /><g
     id="g1249"
     transform="matrix(1.3333333,0,0,-1.3333333,-18.470972,339.36703)"><path
       id="path1251"
       style="fill:none;stroke:#3a5f8b;stroke-width:2.01256;stroke-linecap:butt;stroke-linejoin:round;stroke-miterlimit:10;stroke-dasharray:none;stroke-opacity:1"
       d="M 158.91,150.123 H 65.962 v 59.868 H 251.83 v -59.868 z" /></g><g
     id="g1271"
     transform="matrix(1.3333333,0,0,-1.3333333,-18.470972,339.36703)" /><g
     id="g1297"
     transform="matrix(1.3333333,0,0,-1.3333333,-18.470972,339.36703)" /><g
     id="g1329"
     transform="matrix(1.3333333,0,0,-1.3333333,-18.470972,339.36703)" /><g
     id="g1337"
     transform="matrix(1.3333333,0,0,-1.3333333,-18.470972,339.36703)" /><g
     id="g1351"
     transform="matrix(1.3333333,0,0,-1.3333333,-18.470972,339.36703)" /><g
     id="g1359"
     transform="matrix(1.3333333,0,0,-1.3333333,-18.470972,339.36703)" /><g
     id="g1373"
     transform="matrix(1.3333333,0,0,-1.3333333,-18.470972,339.36703)" /><g
     id="g1429"
     transform="matrix(1.3333333,0,0,-1.3333333,-18.470972,339.36703)"
     style="fill:#808080"><text
   id="text1433"
   style="-inkscape-font-specification:sans-serif;fill:#808080;fill-opacity:1;fill-rule:nonzero;font-family:sans-serif;font-size:18px;font-variant:normal;font-weight:normal;stroke:none;writing-mode:lr-tb"
   transform="matrix(1,0,0,-1,50.513,74.494)"><tspan
     id="tspan1431"
     y="0"
     x="0 15.3 24.282 38.664001 48.150002 52.254002 58.248001 67.230003 71.316002 79.416 83.519997 89.711998 95.706001 105.192 114.174 118.278 122.382 131.364 135.45 144.84599 154.332 158.418 167.90401 173.89799 183.384 190.89 199.87199 206.946 214.02 223.506"
     style="fill:#808080">Mémoire virtuelle du processus</tspan></text>
</g><g
     id="g1435"
     transform="matrix(1.3333333,0,0,-1.3333333,-18.470972,339.36703)"><path
       id="path1437"
       style="fill:none;stroke:#3a5f8b;stroke-width:2.01256;stroke-linecap:butt;stroke-linejoin:round;stroke-miterlimit:10;stroke-dasharray:none;stroke-opacity:1"
       d="M 158.91,102.161 H 65.962 v 35.858 H 251.83 v -35.858 z" /></g><g
     id="g1439"
     transform="matrix(1.3333333,0,0,-1.3333333,-18.470972,339.36703)"><path
       id="path1441"
       style="fill:none;stroke:#3a5f8b;stroke-width:2.01256;stroke-linecap:butt;stroke-linejoin:round;stroke-miterlimit:10;stroke-dasharray:none;stroke-opacity:1"
       d="M 542.92,102.132 H 449.972 V 227.991 H 635.839 V 102.132 Z" /></g><g
     id="g1443"
     transform="matrix(1.3333333,0,0,-1.3333333,-18.470972,339.36703)"
     style="fill:#808080"><text
   id="text1447"
   style="-inkscape-font-specification:sans-serif;fill:#808080;fill-opacity:1;fill-rule:nonzero;font-family:sans-serif;font-size:18px;font-variant:normal;font-weight:normal;stroke:none;writing-mode:lr-tb"
   transform="matrix(1,0,0,-1,529.512,74.494)"><tspan
     id="tspan1445"
     y="0"
     x="0 8.2799997 12.384 19.889999 29.375999 33.48 42.462002"
     style="fill:#808080">Fichier</tspan></text>
</g><path
     id="path1449"
     style="fill:#1f497d;fill-opacity:1;fill-rule:evenodd;stroke:none;stroke-width:1.33333"
     d="M 705.42234,163.20303 H 581.49168 V 83.379036 h 247.82266 v 79.823994 z" /><g
     id="g1451"
     transform="matrix(1.3333333,0,0,-1.3333333,-18.470972,339.36703)"><path
       id="path1453"
       style="fill:none;stroke:#3a5f8b;stroke-width:2.01256;stroke-linecap:butt;stroke-linejoin:round;stroke-miterlimit:10;stroke-dasharray:none;stroke-opacity:1"
       d="m 542.92,132.123 h -92.948 v 59.868 h 185.867 v -59.868 z" /></g><g
     id="g1505"
     transform="matrix(1.3333333,0,0,-1.3333333,-18.470972,339.36703)"><path
       id="path1507"
       style="fill:none;stroke:#3a5f8b;stroke-width:2.01256;stroke-linecap:butt;stroke-linejoin:round;stroke-miterlimit:10;stroke-dasharray:none;stroke-opacity:1"
       d="M 158.91,138.161 H 65.962 v 35.858 H 251.83 v -35.858 z" /></g><g
     id="g1509"
     transform="matrix(1.3333333,0,0,-1.3333333,-18.470972,339.36703)"><path
       id="path1511"
       style="fill:none;stroke:#3a5f8b;stroke-width:2.01256;stroke-linecap:butt;stroke-linejoin:round;stroke-miterlimit:10;stroke-dasharray:none;stroke-opacity:1"
       d="M 158.91,174.161 H 65.962 v 35.858 H 251.83 v -35.858 z" /></g><g
     id="g1513"
     transform="matrix(1.3333333,0,0,-1.3333333,-18.470972,339.36703)"><path
       id="path1515"
       style="fill:none;stroke:#3a5f8b;stroke-width:2.01256;stroke-linecap:butt;stroke-linejoin:round;stroke-miterlimit:10;stroke-dasharray:none;stroke-opacity:1"
       d="M 158.91,210.161 H 65.962 v 35.858 H 251.83 v -35.858 z" /></g><g
     id="g1517"
     transform="matrix(1.3333333,0,0,-1.3333333,-18.470972,339.36703)"
     style="fill:#808080"><text
   id="text1521"
   style="-inkscape-font-specification:sans-serif;fill:#808080;fill-opacity:1;fill-rule:nonzero;font-family:sans-serif;font-size:18px;font-variant:normal;font-weight:normal;stroke:none;writing-mode:lr-tb"
   transform="matrix(1,0,0,-1,141.194,220.904)"><tspan
     id="tspan1519"
     y="0"
     x="0 9.4860001 18.09 26.388"
     style="fill:#808080">page</tspan></text>
</g><g
     transform="matrix(1.3333333,0,0,-1.3333333,-24.386226,332.50262)"
     id="g1545"
     style="fill:#808080"><text
   id="text1549"
   style="font-variant:normal;font-weight:normal;font-size:18px;font-family:sans-serif;-inkscape-font-specification:sans-serif;writing-mode:lr-tb;fill:#808080;fill-opacity:1;fill-rule:nonzero;stroke:none"
   transform="matrix(1,0,0,-1,649.304,152.504)"><tspan
     id="tspan1547"
     style="fill:#808080">length</tspan></text>
</g><g
     transform="matrix(1.3333333,0,0,-1.3333333,-16.470972,331.73991)"
     id="g1559"
     style="fill:#808080"><text
   id="text1563"
   style="font-variant:normal;font-weight:normal;font-size:18px;font-family:sans-serif;-inkscape-font-specification:sans-serif;writing-mode:lr-tb;fill:#808080;fill-opacity:1;fill-rule:nonzero;stroke:none"
   transform="matrix(1,0,0,-1,259.313,170.504)"><tspan
     id="tspan1561"
     style="fill:#808080">length</tspan></text>
</g><text
     id="text2587"
     y="150.60545"
     x="140.5383"
     style="fill:#000000;fill-opacity:1;font-family:sans-serif;font-size:13.3333px;font-style:normal;font-weight:normal;letter-spacing:0px;line-height:1.25;stroke:none;stroke-width:1;text-align:center;text-anchor:middle;word-spacing:0px"
     xml:space="preserve"><tspan
       style="font-size:10.6667px;stroke-width:1"
       y="150.60545"
       x="140.5383"
       id="tspan2585">000000000000000000...</tspan></text><text
     id="text2610"
     y="58.212742"
     x="37.117188"
     style="-inkscape-font-specification:sans-serif;fill:#808080;fill-opacity:1;font-family:sans-serif;font-size:24px;font-stretch:normal;font-style:normal;font-variant:normal;font-weight:normal;letter-spacing:0px;line-height:1.25;stroke:none;stroke-width:1;text-align:center;text-anchor:middle;word-spacing:0px"
     xml:space="preserve"><tspan
       style="stroke-width:1;fill:#808080;"
       y="58.212742"
       x="37.117188"
       id="tspan2608">addr</tspan></text><text
     id="text2614"
     y="80.733307"
     x="538.68365"
     style="-inkscape-font-specification:sans-serif;fill:#808080;fill-opacity:1;font-family:sans-serif;font-size:24px;font-stretch:normal;font-style:normal;font-variant:normal;font-weight:normal;letter-spacing:0px;line-height:1.25;stroke:none;stroke-width:1;text-align:center;text-anchor:middle;word-spacing:0px"
     xml:space="preserve"><tspan
       style="stroke-width:1;fill:#808080;"
       y="80.733307"
       x="538.68365"
       id="tspan2612">offset</tspan></text><path
     id="path2616"
     d="M 317.30235,59.15237 581.49168,83.37905"
     style="fill:none;fill-rule:evenodd;stroke:#6581b2;stroke-width:1px;stroke-linecap:butt;stroke-linejoin:miter;stroke-opacity:1" /><path
     id="path2618"
     d="m 317.30235,139.20305 264.18933,23.99998"
     style="fill:none;fill-rule:evenodd;stroke:#6581b2;stroke-width:1px;stroke-linecap:butt;stroke-linejoin:miter;stroke-opacity:1" /><path
     id="path2620"
     d="m 324.74937,64.02805 v 72.45763"
     style="fill:#b3b3b3;stroke:#b3b3b3;stroke-width:1px;stroke-linecap:butt;stroke-linejoin:miter;stroke-opacity:1;marker-start:url(#marker29767910);marker-end:url(#Arrow1Mend9592)" /><path
     id="path2620-2"
     d="M 837.29174,88.053463 V 160.51109"
     style="fill:#cccccc;stroke:#cccccc;stroke-width:1px;stroke-linecap:butt;stroke-linejoin:miter;stroke-opacity:1;marker-start:url(#marker2976-0-69990);marker-end:url(#Arrow1Mend-8-48983)" /></svg>
