<?xml version="1.0" encoding="UTF-8" standalone="no"?>
<svg
   sodipodi:docname="perms_octal.svg"
   inkscape:version="1.1 (c4e8f9ed74, 2021-05-24)"
   version="1.1"
   id="svg2"
   height="386.13953"
   width="769.75916"
   xmlns:inkscape="http://www.inkscape.org/namespaces/inkscape"
   xmlns:sodipodi="http://sodipodi.sourceforge.net/DTD/sodipodi-0.dtd"
   xmlns="http://www.w3.org/2000/svg"
   xmlns:svg="http://www.w3.org/2000/svg"
   xmlns:rdf="http://www.w3.org/1999/02/22-rdf-syntax-ns#"
   xmlns:cc="http://creativecommons.org/ns#"
   xmlns:dc="http://purl.org/dc/elements/1.1/">
  <defs
     id="defs4" />
  <sodipodi:namedview
     inkscape:document-rotation="0"
     fit-margin-bottom="0"
     fit-margin-right="0"
     fit-margin-left="0"
     fit-margin-top="0"
     inkscape:window-maximized="1"
     inkscape:window-y="37"
     inkscape:window-x="1920"
     inkscape:window-height="1041"
     inkscape:window-width="1916"
     inkscape:guide-bbox="true"
     showguides="true"
     showgrid="false"
     inkscape:current-layer="text3992"
     inkscape:document-units="px"
     inkscape:cy="139.84963"
     inkscape:cx="420.90227"
     inkscape:zoom="1.1083333"
     inkscape:pageshadow="2"
     inkscape:pageopacity="0.0"
     borderopacity="1.0"
     bordercolor="#666666"
     pagecolor="#ffffff"
     id="base"
     inkscape:pagecheckerboard="0" />
  <metadata
     id="metadata7">
    <rdf:RDF>
      <cc:Work
         rdf:about="">
        <dc:format>image/svg+xml</dc:format>
        <dc:type
           rdf:resource="http://purl.org/dc/dcmitype/StillImage" />
        <dc:title />
      </cc:Work>
    </rdf:RDF>
  </metadata>
  <g
     transform="translate(152.9693,-87.059659)"
     id="layer1"
     inkscape:groupmode="layer"
     inkscape:label="Layer 1">
    <rect
       y="324.12531"
       x="487.8277"
       height="80.232628"
       width="40.836964"
       id="rect4056"
       style="color:#000000;fill:#a1ff99;fill-opacity:1;fill-rule:nonzero;stroke:none;stroke-width:1;marker:none;visibility:visible;display:inline;overflow:visible;enable-background:accumulate" />
    <rect
       style="color:#000000;fill:#ffea99;fill-opacity:1;fill-rule:nonzero;stroke:none;stroke-width:1;marker:none;visibility:visible;display:inline;overflow:visible;enable-background:accumulate"
       id="rect4058"
       width="40.836964"
       height="80.232628"
       x="532.07135"
       y="324.39514" />
    <rect
       y="324.12531"
       x="575.95288"
       height="80.232628"
       width="40.836964"
       id="rect4060"
       style="color:#000000;fill:#ff9999;fill-opacity:1;fill-rule:nonzero;stroke:none;stroke-width:1;marker:none;visibility:visible;display:inline;overflow:visible;enable-background:accumulate" />
    <rect
       style="color:#000000;fill:#a1ff99;fill-opacity:1;fill-rule:nonzero;stroke:none;stroke-width:1;marker:none;visibility:visible;display:inline;overflow:visible;enable-background:accumulate"
       id="rect4037"
       width="143.48695"
       height="202.52811"
       x="-152.9693"
       y="269.98996" />
    <rect
       y="270.67108"
       x="12.392353"
       height="202.52811"
       width="143.48695"
       id="rect4039"
       style="color:#000000;fill:#ffea99;fill-opacity:1;fill-rule:nonzero;stroke:none;stroke-width:1;marker:none;visibility:visible;display:inline;overflow:visible;enable-background:accumulate" />
    <rect
       style="color:#000000;fill:#ff9999;fill-opacity:1;fill-rule:nonzero;stroke:none;stroke-width:1;marker:none;visibility:visible;display:inline;overflow:visible;enable-background:accumulate"
       id="rect4041"
       width="143.48695"
       height="202.52811"
       x="177.754"
       y="269.98996" />
    <rect
       style="color:#000000;display:inline;overflow:visible;visibility:visible;fill:#ffea99;fill-opacity:1;fill-rule:nonzero;stroke:none;stroke-width:1;marker:none;enable-background:accumulate"
       id="rect3016"
       width="137.90923"
       height="125.19421"
       x="-0.64585781"
       y="90.411011" />
    <rect
       y="90.411011"
       x="142.65506"
       height="125.19421"
       width="137.90923"
       id="rect3018"
       style="color:#000000;display:inline;overflow:visible;visibility:visible;fill:#ff9999;fill-opacity:1;fill-rule:nonzero;stroke:none;stroke-width:1;marker:none;enable-background:accumulate" />
    <rect
       y="90.411011"
       x="-143.94675"
       height="125.19421"
       width="137.90923"
       id="rect3001"
       style="color:#000000;display:inline;overflow:visible;visibility:visible;fill:#a1ff99;fill-opacity:1;fill-rule:nonzero;stroke:none;stroke-width:1;marker:none;enable-background:accumulate" />
    <g
       style="font-style:normal;font-weight:normal;line-height:0%;font-family:sans-serif;letter-spacing:0px;word-spacing:0px;fill:#000000;fill-opacity:1;stroke:none"
       id="text2985"
       aria-label="rwxr-xr--">
      <path
         id="path1641"
         style="font-style:normal;font-variant:normal;font-weight:normal;font-stretch:normal;font-size:77.46px;line-height:1.25;font-family:'Andale Mono';-inkscape-font-specification:'Andale Mono'"
         d="m -100.26203,169.2662 q -2.23151,-1.73982 -4.53867,-2.53409 -2.30716,-0.79427 -5.06819,-0.79427 -6.50543,0 -9.94725,4.08481 -3.44183,4.0848 -3.44183,11.80055 v 21.067 h -6.99712 v -42.36094 h 6.99712 v 8.28308 q 1.73983,-4.50085 5.33294,-6.88366 3.63094,-2.42062 8.58566,-2.42062 2.57191,0 4.80342,0.64298 2.23152,0.64298 4.27392,2.00458 z" />
      <path
         id="path1643"
         style="font-style:normal;font-variant:normal;font-weight:normal;font-stretch:normal;font-size:77.46px;line-height:1.25;font-family:'Andale Mono';-inkscape-font-specification:'Andale Mono'"
         d="m -97.311893,160.52926 h 6.883652 l 7.375342,34.22915 6.051562,-21.86127 h 5.938096 l 6.127207,21.86127 7.375341,-34.22915 h 6.883653 l -9.909434,42.36094 h -6.656719 l -6.770185,-23.22287 -6.732363,23.22287 h -6.656719 z" />
      <path
         id="path1645"
         style="font-style:normal;font-variant:normal;font-weight:normal;font-stretch:normal;font-size:77.46px;line-height:1.25;font-family:'Andale Mono';-inkscape-font-specification:'Andale Mono'"
         d="m -8.3917476,160.52926 -15.1667284,20.27273 16.6417967,22.08821 h -8.0561427 l -12.405703,-16.9822 -12.36788,16.9822 h -8.056143 l 16.641797,-22.08821 -15.166729,-20.27273 h 7.715742 l 11.233213,15.31802 11.157568,-15.31802 z" />
      <path
         id="path1647"
         style="font-style:normal;font-variant:normal;font-weight:normal;font-stretch:normal;font-size:77.46px;line-height:1.25;font-family:'Andale Mono';-inkscape-font-specification:'Andale Mono'"
         d="m 39.642526,169.2662 q -2.231514,-1.73982 -4.538672,-2.53409 -2.307158,-0.79427 -5.068184,-0.79427 -6.505429,0 -9.947255,4.08481 -3.441826,4.0848 -3.441826,11.80055 v 21.067 H 9.6494694 v -42.36094 h 6.9971196 v 8.28308 q 1.739824,-4.50085 5.332939,-6.88366 3.630937,-2.42062 8.585654,-2.42062 2.571914,0 4.803428,0.64298 2.231513,0.64298 4.273916,2.00458 z" />
      <path
         id="path1649"
         style="font-style:normal;font-variant:normal;font-weight:normal;font-stretch:normal;font-size:77.46px;line-height:1.25;font-family:'Andale Mono';-inkscape-font-specification:'Andale Mono'"
         d="m 56.057393,178.57048 h 19.7054 v 6.20285 h -19.7054 z" />
      <path
         id="path1651"
         style="font-style:normal;font-variant:normal;font-weight:normal;font-stretch:normal;font-size:77.46px;line-height:1.25;font-family:'Andale Mono';-inkscape-font-specification:'Andale Mono'"
         d="m 131.51282,160.52926 -15.16673,20.27273 16.64179,22.08821 h -8.05614 l -12.4057,-16.9822 -12.36788,16.9822 H 92.102016 L 108.74381,180.80199 93.577084,160.52926 h 7.715746 l 11.23321,15.31802 11.15757,-15.31802 z" />
      <path
         id="path1653"
         style="font-style:normal;font-variant:normal;font-weight:normal;font-stretch:normal;font-size:77.46px;line-height:1.25;font-family:'Andale Mono';-inkscape-font-specification:'Andale Mono'"
         d="m 179.54708,169.2662 q -2.23151,-1.73982 -4.53867,-2.53409 -2.30716,-0.79427 -5.06818,-0.79427 -6.50543,0 -9.94726,4.08481 -3.44183,4.0848 -3.44183,11.80055 v 21.067 h -6.99711 v -42.36094 h 6.99711 v 8.28308 q 1.73983,-4.50085 5.33294,-6.88366 3.63094,-2.42062 8.58566,-2.42062 2.57191,0 4.80343,0.64298 2.23151,0.64298 4.27391,2.00458 z" />
      <path
         id="path1655"
         style="font-style:normal;font-variant:normal;font-weight:normal;font-stretch:normal;font-size:77.46px;line-height:1.25;font-family:'Andale Mono';-inkscape-font-specification:'Andale Mono'"
         d="m 195.96195,178.57048 h 19.7054 v 6.20285 h -19.7054 z" />
      <path
         id="path1657"
         style="font-style:normal;font-variant:normal;font-weight:normal;font-stretch:normal;font-size:77.46px;line-height:1.25;font-family:'Andale Mono';-inkscape-font-specification:'Andale Mono'"
         d="m 242.59681,178.57048 h 19.7054 v 6.20285 h -19.7054 z" />
    </g>
    <text
       id="text3788"
       y="135.40269"
       x="-126.34129"
       style="font-style:normal;font-weight:normal;line-height:0%;font-family:sans-serif;letter-spacing:0px;word-spacing:0px;fill:#000000;fill-opacity:1;stroke:none"
       xml:space="preserve"><tspan
         y="135.40269"
         x="-126.34129"
         id="tspan3790"
         sodipodi:role="line"
         style="font-size:46.476px;line-height:1.25;font-family:sans-serif">user</tspan></text>
    <text
       id="text3792"
       y="135.40269"
       x="-1.1864352"
       style="font-style:normal;font-weight:normal;line-height:0%;font-family:sans-serif;letter-spacing:0px;word-spacing:0px;fill:#000000;fill-opacity:1;stroke:none"
       xml:space="preserve"><tspan
         y="135.40269"
         x="-1.1864352"
         id="tspan3794"
         sodipodi:role="line"
         style="font-size:46.476px;line-height:1.25;font-family:sans-serif">group</tspan></text>
    <text
       id="text3796"
       y="135.40269"
       x="145.56483"
       style="font-style:normal;font-weight:normal;line-height:0%;font-family:sans-serif;letter-spacing:0px;word-spacing:0px;fill:#000000;fill-opacity:1;stroke:none"
       xml:space="preserve"><tspan
         y="135.40269"
         x="145.56483"
         id="tspan3798"
         sodipodi:role="line"
         style="font-size:46.476px;line-height:1.25;font-family:sans-serif">other</tspan></text>
    <g
       style="font-style:normal;font-weight:normal;line-height:0%;font-family:sans-serif;letter-spacing:0px;word-spacing:0px;fill:#000000;fill-opacity:1;stroke:none"
       id="text3959"
       aria-label="rwx r-x r--">
      <path
         id="path1660"
         style="font-style:normal;font-variant:normal;font-weight:normal;font-stretch:normal;font-size:71.0222px;line-height:1.25;font-family:'Andale Mono';-inkscape-font-specification:'Andale Mono'"
         d="m -118.11582,284.7635 q -2.04605,-1.59523 -4.16146,-2.32349 -2.11541,-0.72825 -4.64696,-0.72825 -5.96475,0 -9.12053,3.74531 -3.15577,3.74531 -3.15577,10.81979 v 19.3161 h -6.41558 v -38.84027 h 6.41558 v 7.59466 q 1.59523,-4.12678 4.88972,-6.31154 3.32916,-2.21945 7.87208,-2.21945 2.35816,0 4.40421,0.58954 2.04605,0.58954 3.91871,1.83798 z" />
      <path
         id="path1662"
         style="font-style:normal;font-variant:normal;font-weight:normal;font-stretch:normal;font-size:71.0222px;line-height:1.25;font-family:'Andale Mono';-inkscape-font-specification:'Andale Mono'"
         d="m -115.41087,276.75269 h 6.31154 l 6.76237,31.38432 5.548607,-20.04435 h 5.444573 l 5.617967,20.04435 6.762368,-31.38432 h 6.311544 l -9.085849,38.84027 h -6.10347 l -6.207507,-21.29279 -6.172823,21.29279 h -6.10348 z" />
      <path
         id="path1664"
         style="font-style:normal;font-variant:normal;font-weight:normal;font-stretch:normal;font-size:71.0222px;line-height:1.25;font-family:'Andale Mono';-inkscape-font-specification:'Andale Mono'"
         d="m -33.880992,276.75269 -13.906203,18.58784 15.258676,20.25243 h -7.386586 l -11.37465,-15.57079 -11.33997,15.57079 h -7.386587 l 15.258676,-20.25243 -13.906202,-18.58784 h 7.074477 l 10.299606,14.04492 10.230249,-14.04492 z" />
      <path
         id="path1666"
         style="font-style:normal;font-variant:normal;font-weight:normal;font-stretch:normal;font-size:71.0222px;line-height:1.25;font-family:'Andale Mono';-inkscape-font-specification:'Andale Mono'"
         d="m 52.920068,284.7635 q -2.04605,-1.59523 -4.161457,-2.32349 -2.115408,-0.72825 -4.646961,-0.72825 -5.964755,0 -9.120527,3.74531 -3.155771,3.74531 -3.155771,10.81979 v 19.3161 h -6.41558 v -38.84027 h 6.41558 v 7.59466 q 1.595225,-4.12678 4.889712,-6.31154 3.329166,-2.21945 7.87209,-2.21945 2.358159,0 4.404208,0.58954 2.04605,0.58954 3.918706,1.83798 z" />
      <path
         id="path1668"
         style="font-style:normal;font-variant:normal;font-weight:normal;font-stretch:normal;font-size:71.0222px;line-height:1.25;font-family:'Andale Mono';-inkscape-font-specification:'Andale Mono'"
         d="m 67.970671,293.29448 h 18.06766 v 5.68733 h -18.06766 z" />
      <path
         id="path1670"
         style="font-style:normal;font-variant:normal;font-weight:normal;font-stretch:normal;font-size:71.0222px;line-height:1.25;font-family:'Andale Mono';-inkscape-font-specification:'Andale Mono'"
         d="m 137.1549,276.75269 -13.90621,18.58784 15.25868,20.25243 h -7.38659 l -11.37465,-15.57079 -11.33997,15.57079 h -7.38658 l 15.25867,-20.25243 -13.9062,-18.58784 h 7.07448 l 10.2996,14.04492 10.23025,-14.04492 z" />
      <path
         id="path1672"
         style="font-style:normal;font-variant:normal;font-weight:normal;font-stretch:normal;font-size:71.0222px;line-height:1.25;font-family:'Andale Mono';-inkscape-font-specification:'Andale Mono'"
         d="m 223.95596,284.7635 q -2.04605,-1.59523 -4.16146,-2.32349 -2.11541,-0.72825 -4.64696,-0.72825 -5.96476,0 -9.12053,3.74531 -3.15577,3.74531 -3.15577,10.81979 v 19.3161 h -6.41558 v -38.84027 h 6.41558 v 7.59466 q 1.59523,-4.12678 4.88971,-6.31154 3.32917,-2.21945 7.87209,-2.21945 2.35816,0 4.40421,0.58954 2.04605,0.58954 3.91871,1.83798 z" />
      <path
         id="path1674"
         style="font-style:normal;font-variant:normal;font-weight:normal;font-stretch:normal;font-size:71.0222px;line-height:1.25;font-family:'Andale Mono';-inkscape-font-specification:'Andale Mono'"
         d="m 239.00656,293.29448 h 18.06766 v 5.68733 h -18.06766 z" />
      <path
         id="path1676"
         style="font-style:normal;font-variant:normal;font-weight:normal;font-stretch:normal;font-size:71.0222px;line-height:1.25;font-family:'Andale Mono';-inkscape-font-specification:'Andale Mono'"
         d="m 281.76553,293.29448 h 18.06766 v 5.68733 h -18.06766 z" />
    </g>
    <text
       id="text2985-2"
       y="117.96873"
       x="322.90189"
       style="font-style:normal;font-weight:normal;line-height:0%;font-family:sans-serif;letter-spacing:0px;word-spacing:0px;fill:#000000;fill-opacity:1;stroke:none"
       xml:space="preserve"><tspan
         style="font-style:normal;font-variant:normal;font-weight:normal;font-stretch:normal;font-size:44.8631px;line-height:1.25;font-family:'Andale Mono';-inkscape-font-specification:'Andale Mono'"
         y="117.96873"
         x="322.90189"
         id="tspan2987-5"
         sodipodi:role="line"><tspan
           style="fill:#ffffff"
           id="tspan2392">r</tspan><tspan
           id="tspan3837"
           style="font-size:44.8631px;fill:#a0a0a0;fill-opacity:1">ead    <tspan
   id="tspan3927"
   style="fill:#241f1c">= 4</tspan></tspan></tspan><tspan
         id="tspan3821"
         style="font-style:normal;font-variant:normal;font-weight:normal;font-stretch:normal;font-size:44.8631px;line-height:1.25;font-family:'Andale Mono';-inkscape-font-specification:'Andale Mono'"
         y="174.04761"
         x="322.90189"
         sodipodi:role="line"><tspan
           style="fill:#ffffff"
           id="tspan4250">w</tspan><tspan
           id="tspan3839"
           style="font-size:44.8631px;fill:#a0a0a0;fill-opacity:1">rite   <tspan
   id="tspan3929"
   style="fill:#241f1c">= 2</tspan></tspan></tspan><tspan
         id="tspan3825"
         style="font-style:normal;font-variant:normal;font-weight:normal;font-stretch:normal;font-size:44.8631px;line-height:1.25;font-family:'Andale Mono';-inkscape-font-specification:'Andale Mono'"
         y="230.12646"
         x="322.90189"
         sodipodi:role="line"><tspan
           id="tspan3841"
           style="font-size:44.8631px;fill:#a0a0a0;fill-opacity:1">e</tspan><tspan
           style="fill:#ffffff"
           id="tspan6380">x</tspan><tspan
           id="tspan3843"
           style="font-size:44.8631px;fill:#a0a0a0;fill-opacity:1">ecute <tspan
   id="tspan3931"
   style="fill:#241f1c">= 1</tspan></tspan></tspan></text>
    <g
       style="font-style:normal;font-weight:normal;line-height:0%;font-family:sans-serif;letter-spacing:0px;word-spacing:0px;fill:#000000;fill-opacity:1;stroke:none"
       id="text3992"
       aria-label="421 401 400 =&gt; 754">
      <path
         id="path1679"
         style="font-style:normal;font-variant:normal;font-weight:normal;font-stretch:normal;font-size:71.0222px;line-height:1.25;font-family:'Andale Mono';-inkscape-font-specification:'Andale Mono'"
         d="m -125.57176,343.1984 -16.33372,27.36158 h 16.33372 z m -1.1444,-6.38091 h 8.11484 v 33.74249 h 6.90108 v 5.68732 h -6.90108 v 12.34566 h -6.97044 V 376.2473 h -21.95169 v -6.62365 z" />
      <path
         id="path1681"
         style="font-style:normal;font-variant:normal;font-weight:normal;font-stretch:normal;font-size:71.0222px;line-height:1.25;font-family:'Andale Mono';-inkscape-font-specification:'Andale Mono'"
         d="m -95.366516,382.69756 h 23.789663 v 5.8954 h -31.453677 v -5.8954 q 6.484934,-6.83173 11.339968,-12.06823 4.855033,-5.2365 6.69301,-7.38658 3.467881,-4.23082 4.681639,-6.83173 1.213758,-2.63559 1.213758,-5.37521 0,-4.33486 -2.566231,-6.79705 -2.531554,-2.4622 -6.970441,-2.4622 -3.155772,0 -6.623653,1.1444 -3.467881,1.14441 -7.35191,3.46789 v -7.07448 q 3.57192,-1.69926 7.005122,-2.56623 3.467881,-0.86697 6.831726,-0.86697 7.594659,0 12.206941,4.05742 4.64696,4.02274 4.64696,10.57703 0,3.32917 -1.560546,6.65834 -1.525868,3.32916 -4.993749,7.3519 -1.942013,2.25413 -5.652646,6.24219 -3.675954,3.98806 -11.235934,11.92951 z" />
      <path
         id="path1683"
         style="font-style:normal;font-variant:normal;font-weight:normal;font-stretch:normal;font-size:71.0222px;line-height:1.25;font-family:'Andale Mono';-inkscape-font-specification:'Andale Mono'"
         d="m -56.179461,382.69756 h 10.889146 v -39.56852 l -11.721438,2.63559 v -6.3809 l 11.65208,-2.56624 h 7.00512 v 45.88007 h 10.750431 v 5.8954 h -28.575339 z" />
      <path
         id="path1685"
         style="font-style:normal;font-variant:normal;font-weight:normal;font-stretch:normal;font-size:71.0222px;line-height:1.25;font-family:'Andale Mono';-inkscape-font-specification:'Andale Mono'"
         d="M 45.464129,343.1984 29.13041,370.55998 h 16.333719 z m -1.1444,-6.38091 h 8.114841 v 33.74249 h 6.901083 v 5.68732 H 52.43457 v 12.34566 H 45.464129 V 376.2473 H 23.512443 v -6.62365 z" />
      <path
         id="path1687"
         style="font-style:normal;font-variant:normal;font-weight:normal;font-stretch:normal;font-size:71.0222px;line-height:1.25;font-family:'Andale Mono';-inkscape-font-specification:'Andale Mono'"
         d="m 79.484042,362.58385 q 0,-1.90733 1.317794,-3.29449 1.352474,-1.38715 3.22513,-1.38715 1.942013,0 3.329165,1.38715 1.387153,1.38716 1.387153,3.29449 0,1.94201 -1.387153,3.29449 -1.352473,1.35247 -3.329165,1.35247 -1.942014,0 -3.259809,-1.31779 -1.283115,-1.3178 -1.283115,-3.32917 z m 4.612281,-21.15407 q -4.889712,0 -7.317229,5.27117 -2.392837,5.27118 -2.392837,16.05629 0,10.75043 2.392837,16.02161 2.427517,5.27118 7.317229,5.27118 4.924391,0 7.317229,-5.27118 2.427517,-5.27118 2.427517,-16.02161 0,-10.78511 -2.427517,-16.05629 -2.392838,-5.27117 -7.317229,-5.27117 z m 0,-5.54861 q 8.288236,0 12.51905,6.79704 4.265497,6.79705 4.265497,20.07903 0,13.24731 -4.265497,20.04436 -4.230814,6.79704 -12.51905,6.79704 -8.288235,0 -12.51905,-6.79704 -4.230815,-6.79705 -4.230815,-20.04436 0,-13.28198 4.230815,-20.07903 4.230815,-6.79704 12.51905,-6.79704 z" />
      <path
         id="path1689"
         style="font-style:normal;font-variant:normal;font-weight:normal;font-stretch:normal;font-size:71.0222px;line-height:1.25;font-family:'Andale Mono';-inkscape-font-specification:'Andale Mono'"
         d="m 114.85643,382.69756 h 10.88914 v -39.56852 l -11.72143,2.63559 v -6.3809 l 11.65208,-2.56624 h 7.00512 v 45.88007 h 10.75043 v 5.8954 h -28.57534 z" />
      <path
         id="path1691"
         style="font-style:normal;font-variant:normal;font-weight:normal;font-stretch:normal;font-size:71.0222px;line-height:1.25;font-family:'Andale Mono';-inkscape-font-specification:'Andale Mono'"
         d="m 216.50002,343.1984 -16.33372,27.36158 h 16.33372 z m -1.1444,-6.38091 h 8.11484 v 33.74249 h 6.90108 v 5.68732 h -6.90108 v 12.34566 h -6.97044 V 376.2473 h -21.95169 v -6.62365 z" />
      <path
         id="path1693"
         style="font-style:normal;font-variant:normal;font-weight:normal;font-stretch:normal;font-size:71.0222px;line-height:1.25;font-family:'Andale Mono';-inkscape-font-specification:'Andale Mono'"
         d="m 250.51993,362.58385 q 0,-1.90733 1.31779,-3.29449 1.35248,-1.38715 3.22513,-1.38715 1.94202,0 3.32917,1.38715 1.38715,1.38716 1.38715,3.29449 0,1.94201 -1.38715,3.29449 -1.35247,1.35247 -3.32917,1.35247 -1.94201,0 -3.2598,-1.31779 -1.28312,-1.3178 -1.28312,-3.32917 z m 4.61228,-21.15407 q -4.88971,0 -7.31723,5.27117 -2.39283,5.27118 -2.39283,16.05629 0,10.75043 2.39283,16.02161 2.42752,5.27118 7.31723,5.27118 4.92439,0 7.31723,-5.27118 2.42752,-5.27118 2.42752,-16.02161 0,-10.78511 -2.42752,-16.05629 -2.39284,-5.27117 -7.31723,-5.27117 z m 0,-5.54861 q 8.28824,0 12.51905,6.79704 4.2655,6.79705 4.2655,20.07903 0,13.24731 -4.2655,20.04436 -4.23081,6.79704 -12.51905,6.79704 -8.28823,0 -12.51905,-6.79704 -4.23081,-6.79705 -4.23081,-20.04436 0,-13.28198 4.23081,-20.07903 4.23082,-6.79704 12.51905,-6.79704 z" />
      <path
         id="path1695"
         style="font-style:normal;font-variant:normal;font-weight:normal;font-stretch:normal;font-size:71.0222px;line-height:1.25;font-family:'Andale Mono';-inkscape-font-specification:'Andale Mono'"
         d="m 293.2789,362.58385 q 0,-1.90733 1.3178,-3.29449 1.35247,-1.38715 3.22513,-1.38715 1.94201,0 3.32916,1.38715 1.38715,1.38716 1.38715,3.29449 0,1.94201 -1.38715,3.29449 -1.35247,1.35247 -3.32916,1.35247 -1.94202,0 -3.25981,-1.31779 -1.28312,-1.3178 -1.28312,-3.32917 z m 4.61228,-21.15407 q -4.88971,0 -7.31722,5.27117 -2.39284,5.27118 -2.39284,16.05629 0,10.75043 2.39284,16.02161 2.42751,5.27118 7.31722,5.27118 4.92439,0 7.31723,-5.27118 2.42752,-5.27118 2.42752,-16.02161 0,-10.78511 -2.42752,-16.05629 -2.39284,-5.27117 -7.31723,-5.27117 z m 0,-5.54861 q 8.28824,0 12.51905,6.79704 4.2655,6.79705 4.2655,20.07903 0,13.24731 -4.2655,20.04436 -4.23081,6.79704 -12.51905,6.79704 -8.28823,0 -12.51905,-6.79704 -4.23081,-6.79705 -4.23081,-20.04436 0,-13.28198 4.23081,-20.07903 4.23082,-6.79704 12.51905,-6.79704 z" />
      <path
         id="path1697"
         style="font-style:normal;font-variant:normal;font-weight:normal;font-stretch:normal;font-size:71.0222px;line-height:1.25;font-family:'Andale Mono';-inkscape-font-specification:'Andale Mono';fill:#ffffff"
         d="m 365.09872,370.42126 h 36.6555 v 5.96476 h -36.6555 z m 0,-14.0796 h 36.6555 v 5.8954 h -36.6555 z" />
      <path
         id="path1699"
         style="font-style:normal;font-variant:normal;font-weight:normal;font-stretch:normal;font-size:71.0222px;line-height:1.25;font-family:'Andale Mono';-inkscape-font-specification:'Andale Mono';fill:#ffffff"
         d="m 407.85769,355.26662 v -6.31154 l 36.6555,14.49574 v 5.75668 l -36.6555,14.49574 v -6.34622 l 29.47699,-10.99318 z" />
      <path
         id="path1701"
         style="font-style:normal;font-variant:normal;font-weight:normal;font-stretch:normal;font-size:71.0222px;line-height:1.25;font-family:'Andale Mono';-inkscape-font-specification:'Andale Mono'"
         d="m 495.14425,336.81749 h 32.59808 v 2.98238 l -18.51848,48.79309 h -7.31723 l 18.03298,-45.88007 h -24.79535 z" />
      <path
         id="path1703"
         style="font-style:normal;font-variant:normal;font-weight:normal;font-stretch:normal;font-size:71.0222px;line-height:1.25;font-family:'Andale Mono';-inkscape-font-specification:'Andale Mono'"
         d="m 540.26138,336.81749 h 26.21718 v 5.8954 h -19.83628 v 12.72712 q 1.49119,-0.55486 2.98238,-0.79761 1.52587,-0.27743 3.05174,-0.27743 8.04548,0 12.7618,4.751 4.71632,4.751 4.71632,12.86584 0,8.1842 -4.95907,12.90051 -4.92439,4.71632 -13.49006,4.71632 -4.12678,0 -7.55998,-0.55486 -3.39852,-0.55486 -6.10347,-1.66458 v -7.10916 q 3.19045,1.73394 6.41558,2.60091 3.22513,0.83229 6.58897,0.83229 5.79136,0 8.91246,-3.05173 3.15577,-3.05174 3.15577,-8.6697 0,-5.54861 -3.25981,-8.63503 -3.22513,-3.08641 -9.01649,-3.08641 -2.80898,0 -5.47925,0.6589 -2.67027,0.62422 -5.09779,1.90733 z" />
      <path
         id="path1705"
         style="font-style:normal;font-variant:normal;font-weight:normal;font-stretch:normal;font-size:71.0222px;line-height:1.25;font-family:'Andale Mono';-inkscape-font-specification:'Andale Mono'"
         d="m 601.33077,343.1984 -16.33372,27.36158 h 16.33372 z m -1.1444,-6.38091 h 8.11484 v 33.74249 h 6.90108 v 5.68732 h -6.90108 v 12.34566 h -6.97044 V 376.2473 h -21.95169 v -6.62365 z" />
    </g>
    <g
       style="font-style:normal;font-weight:normal;line-height:0%;font-family:sans-serif;letter-spacing:0px;word-spacing:0px;fill:#000000;fill-opacity:1;stroke:none"
       id="text3996"
       aria-label=" 7   5   4 ">
      <path
         id="path1708"
         style="font-style:normal;font-variant:normal;font-weight:normal;font-stretch:normal;font-size:71.0222px;line-height:1.25;font-family:'Andale Mono';-inkscape-font-specification:'Andale Mono'"
         d="m -99.285221,409.81749 h 32.598081 v 2.98238 l -18.518484,48.79309 h -7.317229 l 18.032981,-45.88007 h -24.795349 z" />
      <path
         id="path1710"
         style="font-style:normal;font-variant:normal;font-weight:normal;font-stretch:normal;font-size:71.0222px;line-height:1.25;font-family:'Andale Mono';-inkscape-font-specification:'Andale Mono'"
         d="m 74.108827,409.81749 h 26.217183 v 5.8954 H 80.489728 v 12.72712 q 1.491188,-0.55486 2.982377,-0.79761 1.525868,-0.27743 3.051735,-0.27743 8.045484,0 12.761802,4.751 4.716318,4.751 4.716318,12.86584 0,8.1842 -4.959069,12.90051 -4.924391,4.71632 -13.490057,4.71632 -4.126779,0 -7.559981,-0.55486 -3.398523,-0.55486 -6.10347,-1.66458 v -7.10916 q 3.19045,1.73394 6.41558,2.60091 3.225129,0.83229 6.588973,0.83229 5.791362,0 8.912454,-3.05173 3.155772,-3.05174 3.155772,-8.6697 0,-5.54861 -3.259808,-8.63503 -3.225129,-3.08641 -9.016491,-3.08641 -2.808983,0 -5.479251,0.6589 -2.670269,0.62422 -5.097785,1.90733 z" />
      <path
         id="path1712"
         style="font-style:normal;font-variant:normal;font-weight:normal;font-stretch:normal;font-size:71.0222px;line-height:1.25;font-family:'Andale Mono';-inkscape-font-specification:'Andale Mono'"
         d="m 263.45513,416.1984 -16.33372,27.36158 h 16.33372 z m -1.1444,-6.38091 h 8.11484 v 33.74249 h 6.90108 v 5.68732 h -6.90108 v 12.34566 h -6.97044 V 449.2473 h -21.95169 v -6.62365 z" />
    </g>
  </g>
</svg>
