<?xml version="1.0" encoding="UTF-8" standalone="no"?>
<svg
   xmlns:dc="http://purl.org/dc/elements/1.1/"
   xmlns:cc="http://creativecommons.org/ns#"
   xmlns:rdf="http://www.w3.org/1999/02/22-rdf-syntax-ns#"
   xmlns:svg="http://www.w3.org/2000/svg"
   xmlns="http://www.w3.org/2000/svg"
   xmlns:sodipodi="http://sodipodi.sourceforge.net/DTD/sodipodi-0.dtd"
   xmlns:inkscape="http://www.inkscape.org/namespaces/inkscape"
   version="1.1"
   id="svg835"
   xml:space="preserve"
   width="897.72681"
   height="384.8804"
   viewBox="0 0 897.72681 384.8804"
   sodipodi:docname="pointeurs.svg"
   inkscape:version="1.0.1 (3bc2e813f5, 2020-09-07)"><style
     id="style1073" /><metadata
     id="metadata841"><rdf:RDF><cc:Work
         rdf:about=""><dc:format>image/svg+xml</dc:format><dc:type
           rdf:resource="http://purl.org/dc/dcmitype/StillImage" /><dc:title /></cc:Work></rdf:RDF></metadata><defs
     id="defs839"><clipPath
       clipPathUnits="userSpaceOnUse"
       id="clipPath851"><path
         d="M 0,1.2207e-4 H 720 V 540.00012 H 0 Z"
         clip-rule="evenodd"
         id="path849" /></clipPath><clipPath
       clipPathUnits="userSpaceOnUse"
       id="clipPath1023"><path
         d="M -5.019e-6,540 H 720 V 0 H -2.962e-6"
         clip-rule="evenodd"
         id="path1021" /></clipPath><clipPath
       clipPathUnits="userSpaceOnUse"
       id="clipPath1033"><path
         d="M -5.019e-6,540 H 720 V 0 H -2.962e-6"
         clip-rule="evenodd"
         id="path1031" /></clipPath><clipPath
       clipPathUnits="userSpaceOnUse"
       id="clipPath1043"><path
         d="M -5.019e-6,540 H 720 V 0 H -2.962e-6"
         clip-rule="evenodd"
         id="path1041" /></clipPath><clipPath
       clipPathUnits="userSpaceOnUse"
       id="clipPath1059"><path
         d="M -8.58e-7,540 H 720 V 6.104e-6 H -5.13e-7"
         clip-rule="evenodd"
         id="path1057" /></clipPath><clipPath
       clipPathUnits="userSpaceOnUse"
       id="clipPath1069"><path
         d="M -8.58e-7,540 H 720 V 6.104e-6 H -5.13e-7"
         clip-rule="evenodd"
         id="path1067" /></clipPath></defs><sodipodi:namedview
     pagecolor="#ffffff"
     bordercolor="#666666"
     borderopacity="1"
     objecttolerance="10"
     gridtolerance="10"
     guidetolerance="10"
     inkscape:pageopacity="0"
     inkscape:pageshadow="2"
     inkscape:window-width="1676"
     inkscape:window-height="1014"
     id="namedview837"
     showgrid="false"
     fit-margin-top="0"
     fit-margin-left="0"
     fit-margin-right="0"
     fit-margin-bottom="0"
     inkscape:zoom="1.1722222"
     inkscape:cx="445.98984"
     inkscape:cy="148.11373"
     inkscape:window-x="0"
     inkscape:window-y="34"
     inkscape:window-maximized="1"
     inkscape:current-layer="g843"
     inkscape:document-rotation="0" /><g
     id="g843"
     inkscape:groupmode="layer"
     inkscape:label="SysInfo_IntroC_Chanel_190930"
     transform="matrix(1.3333333,0,0,-1.3333333,-34.010155,508.11374)"><path
       d="m 127.28,264 h 116.44 v 42 H 127.28 Z"
       style="fill:#4f81bd;fill-opacity:1;fill-rule:evenodd;stroke:none"
       id="path879" /><path
       d="m 127.28,264 h 116.44 v 42 H 127.28 Z"
       style="fill:none;stroke:#385d8a;stroke-width:2;stroke-linecap:butt;stroke-linejoin:round;stroke-miterlimit:10;stroke-dasharray:none;stroke-opacity:1"
       id="path881" /><text
       transform="matrix(1,0,0,-1,158.52,278.95)"
       style="font-variant:normal;font-weight:normal;font-size:18px;font-family:Cantarell;-inkscape-font-specification:Cantarell;writing-mode:lr-tb;fill:#ffffff;fill-opacity:1;fill-rule:nonzero;stroke:none"
       id="text885"><tspan
         x="0 9.1260004 16.92 26.046 35.172001 44.298"
         y="0"
         sodipodi:role="line"
         id="tspan883">0x455C</tspan></text><text
       transform="matrix(1,0,0,-1,673.32,279.1)"
       style="font-variant:normal;font-weight:normal;font-size:18px;font-family:Cantarell;-inkscape-font-specification:Cantarell;writing-mode:lr-tb;fill:#4d4d4d;fill-opacity:1;fill-rule:nonzero;stroke:none;"
       id="text889"><tspan
         x="0 9.2399998 13.314 17.388"
         y="0"
         sodipodi:role="line"
         id="tspan887">Pile</tspan></text><text
       transform="matrix(1,0,0,-1,675.1,127.8)"
       style="font-variant:normal;font-weight:normal;font-size:18px;font-family:Cantarell;-inkscape-font-specification:Cantarell;writing-mode:lr-tb;fill:#4d4d4d;fill-opacity:1;fill-rule:nonzero;stroke:none;"
       id="text893"><tspan
         x="0 7.3260002 15.948"
         y="0"
         sodipodi:role="line"
         id="tspan891">Tas</tspan></text><text
       transform="matrix(1,0,0,-1,127.22,309.55)"
       style="font-variant:normal;font-weight:normal;font-size:18px;font-family:Cantarell;-inkscape-font-specification:Cantarell;writing-mode:lr-tb;fill:#77933c;fill-opacity:1;fill-rule:nonzero;stroke:none"
       id="text897"><tspan
         x="0 7.5599999 17.01 25.632 31.914 40.877998"
         y="0"
         sodipodi:role="line"
         id="tspan895">char* </tspan></text><text
       transform="matrix(1,0,0,-1,172.34,309.55)"
       style="font-variant:normal;font-weight:normal;font-size:18px;font-family:Cantarell;-inkscape-font-specification:Cantarell;writing-mode:lr-tb;fill:#77933c;fill-opacity:1;fill-rule:nonzero;stroke:none"
       id="text901"><tspan
         x="0 9.3599997 15.39 21.6 30.834 34.919998 39.006001"
         y="0"
         sodipodi:role="line"
         id="tspan899">ptrPile</tspan></text><text
       transform="matrix(1,0,0,-1,247.25,308.64)"
       style="font-variant:normal;font-weight:normal;font-size:18px;font-family:Cantarell;-inkscape-font-specification:Cantarell;writing-mode:lr-tb;fill:#77933c;fill-opacity:1;fill-rule:nonzero;stroke:none"
       id="text905"><tspan
         x="0 7.5599999 17.01 25.632 31.914 40.877998"
         y="0"
         sodipodi:role="line"
         id="tspan903">char* </tspan></text><text
       transform="matrix(1,0,0,-1,292.37,308.64)"
       style="font-variant:normal;font-weight:normal;font-size:18px;font-family:Cantarell;-inkscape-font-specification:Cantarell;writing-mode:lr-tb;fill:#77933c;fill-opacity:1;fill-rule:nonzero;stroke:none"
       id="text909"><tspan
         x="0 9.3599997 15.39 21.6 28.926001 37.548"
         y="0"
         sodipodi:role="line"
         id="tspan907">ptrTas</tspan></text><path
       d="m 243.71,264 h 116.44 v 42 H 243.71 Z"
       style="fill:#4f81bd;fill-opacity:1;fill-rule:evenodd;stroke:none"
       id="path911" /><path
       d="m 243.71,264 h 116.44 v 42 H 243.71 Z"
       style="fill:none;stroke:#385d8a;stroke-width:2;stroke-linecap:butt;stroke-linejoin:round;stroke-miterlimit:10;stroke-dasharray:none;stroke-opacity:1"
       id="path913" /><text
       transform="matrix(1,0,0,-1,274.97,278.95)"
       style="font-variant:normal;font-weight:normal;font-size:18px;font-family:Cantarell;-inkscape-font-specification:Cantarell;writing-mode:lr-tb;fill:#ffffff;fill-opacity:1;fill-rule:nonzero;stroke:none"
       id="text917"><tspan
         x="0 9.1260004 16.92 27.341999 35.604 44.73"
         y="0"
         sodipodi:role="line"
         id="tspan915">0xAF51</tspan></text><path
       d="m 360.15,264 h 116.44 v 42 H 360.15 Z"
       style="fill:#4f81bd;fill-opacity:1;fill-rule:evenodd;stroke:none"
       id="path919" /><path
       d="m 360.15,264 h 116.44 v 42 H 360.15 Z"
       style="fill:none;stroke:#385d8a;stroke-width:2;stroke-linecap:butt;stroke-linejoin:round;stroke-miterlimit:10;stroke-dasharray:none;stroke-opacity:1"
       id="path921" /><text
       transform="matrix(1,0,0,-1,412.2,278.95)"
       style="font-variant:normal;font-weight:normal;font-size:18px;font-family:Cantarell;-inkscape-font-specification:Cantarell;writing-mode:lr-tb;fill:#ffffff;fill-opacity:1;fill-rule:nonzero;stroke:none"
       id="text925"><tspan
         x="0"
         y="0"
         id="tspan923">…</tspan></text><path
       d="m 476.58,264 h 116.44 v 42 H 476.58 Z"
       style="fill:#4f81bd;fill-opacity:1;fill-rule:evenodd;stroke:none"
       id="path927" /><path
       d="m 476.58,264 h 116.44 v 42 H 476.58 Z"
       style="fill:none;stroke:#385d8a;stroke-width:2;stroke-linecap:butt;stroke-linejoin:round;stroke-miterlimit:10;stroke-dasharray:none;stroke-opacity:1"
       id="path929" /><text
       transform="matrix(1,0,0,-1,486.1,308.64)"
       style="font-variant:normal;font-weight:normal;font-size:18px;font-family:Cantarell;-inkscape-font-specification:Cantarell;writing-mode:lr-tb;fill:#77933c;fill-opacity:1;fill-rule:nonzero;stroke:none"
       id="text933"><tspan
         x="0 7.5599999 17.01 25.632 31.914 36.108002 40.194 49.068001 54.827999 60.858002 66.834"
         y="0"
         sodipodi:role="line"
         id="tspan931">char lettre</tspan></text><path
       d="m 66,107.08 h 116.44 v 42 H 66 Z"
       style="fill:#4f81bd;fill-opacity:1;fill-rule:evenodd;stroke:none"
       id="path935" /><path
       d="m 66,107.08 h 116.44 v 42 H 66 Z"
       style="fill:none;stroke:#385d8a;stroke-width:2;stroke-linecap:butt;stroke-linejoin:round;stroke-miterlimit:10;stroke-dasharray:none;stroke-opacity:1"
       id="path937" /><text
       transform="matrix(1,0,0,-1,118.61,121.99)"
       style="font-variant:normal;font-weight:normal;font-size:18px;font-family:Cantarell;-inkscape-font-specification:Cantarell;writing-mode:lr-tb;fill:#ffffff;fill-opacity:1;fill-rule:nonzero;stroke:none"
       id="text941"><tspan
         x="0"
         y="0"
         id="tspan939">H</tspan></text><path
       d="m 182.44,107.08 h 116.44 v 42 H 182.44 Z"
       style="fill:#4f81bd;fill-opacity:1;fill-rule:evenodd;stroke:none"
       id="path943" /><path
       d="m 182.44,107.08 h 116.44 v 42 H 182.44 Z"
       style="fill:none;stroke:#385d8a;stroke-width:2;stroke-linecap:butt;stroke-linejoin:round;stroke-miterlimit:10;stroke-dasharray:none;stroke-opacity:1"
       id="path945" /><text
       transform="matrix(1,0,0,-1,235.42,121.99)"
       style="font-variant:normal;font-weight:normal;font-size:18px;font-family:Cantarell;-inkscape-font-specification:Cantarell;writing-mode:lr-tb;fill:#ffffff;fill-opacity:1;fill-rule:nonzero;stroke:none"
       id="text949"><tspan
         x="0"
         y="0"
         id="tspan947">A</tspan></text><path
       d="m 298.87,107.08 h 116.44 v 42 H 298.87 Z"
       style="fill:#4f81bd;fill-opacity:1;fill-rule:evenodd;stroke:none"
       id="path951" /><path
       d="m 298.87,107.08 h 116.44 v 42 H 298.87 Z"
       style="fill:none;stroke:#385d8a;stroke-width:2;stroke-linecap:butt;stroke-linejoin:round;stroke-miterlimit:10;stroke-dasharray:none;stroke-opacity:1"
       id="path953" /><text
       transform="matrix(1,0,0,-1,353.3,121.99)"
       style="font-variant:normal;font-weight:normal;font-size:18px;font-family:Cantarell;-inkscape-font-specification:Cantarell;writing-mode:lr-tb;fill:#ffffff;fill-opacity:1;fill-rule:nonzero;stroke:none"
       id="text957"><tspan
         x="0"
         y="0"
         id="tspan955">L</tspan></text><path
       d="m 415.31,107.08 h 116.44 v 42 H 415.31 Z"
       style="fill:#4f81bd;fill-opacity:1;fill-rule:evenodd;stroke:none"
       id="path959" /><path
       d="m 415.31,107.08 h 116.44 v 42 H 415.31 Z"
       style="fill:none;stroke:#385d8a;stroke-width:2;stroke-linecap:butt;stroke-linejoin:round;stroke-miterlimit:10;stroke-dasharray:none;stroke-opacity:1"
       id="path961" /><text
       transform="matrix(1,0,0,-1,465.58,121.99)"
       style="font-variant:normal;font-weight:normal;font-size:18px;font-family:Cantarell;-inkscape-font-specification:Cantarell;writing-mode:lr-tb;fill:#ffffff;fill-opacity:1;fill-rule:nonzero;stroke:none"
       id="text965"><tspan
         x="0"
         y="0"
         id="tspan963">\</tspan></text><text
       transform="matrix(1,0,0,-1,472.54,121.99)"
       style="font-variant:normal;font-weight:normal;font-size:18px;font-family:Cantarell;-inkscape-font-specification:Cantarell;writing-mode:lr-tb;fill:#ffffff;fill-opacity:1;fill-rule:nonzero;stroke:none"
       id="text969"><tspan
         x="0"
         y="0"
         id="tspan967">0</tspan></text><path
       d="m 531.74,107.08 h 116.44 v 42 H 531.74 Z"
       style="fill:#4f81bd;fill-opacity:1;fill-rule:evenodd;stroke:none"
       id="path971" /><path
       d="m 531.74,107.08 h 116.44 v 42 H 531.74 Z"
       style="fill:none;stroke:#385d8a;stroke-width:2;stroke-linecap:butt;stroke-linejoin:round;stroke-miterlimit:10;stroke-dasharray:none;stroke-opacity:1"
       id="path973" /><text
       transform="matrix(1,0,0,-1,583.82,121.99)"
       style="font-variant:normal;font-weight:normal;font-size:18px;font-family:Cantarell;-inkscape-font-specification:Cantarell;writing-mode:lr-tb;fill:#ffffff;fill-opacity:1;fill-rule:nonzero;stroke:none"
       id="text977"><tspan
         x="0"
         y="0"
         id="tspan975">…</tspan></text><path
       d="m 489,324 -13.3,9 h 7.13 c -15.45,15.89 -69.44,27 -131.26,27 h 3.72 c 61.82,0 115.81,-11.11 131.27,-27 h 7.14 z"
       style="fill:#4f81bd;fill-opacity:1;fill-rule:evenodd;stroke:none"
       id="path979" /><path
       d="m 353.43,360 c -74.14,-0.27 -133.7,-16.31 -133.7,-36 H 216 c 0,19.88 60.7,36 135.57,36 0.62,0 1.24,0 1.86,0 z"
       style="fill:#406898;fill-opacity:1;fill-rule:evenodd;stroke:none"
       id="path981" /><path
       d="m 353.43,360 c -74.14,-0.27 -133.7,-16.31 -133.7,-36 H 216 c 0,19.88 60.7,36 135.57,36 h 3.72 c 61.82,0 115.81,-11.11 131.27,-27 h 7.14 l -4.7,-9 -13.3,9 h 7.13 c -15.45,15.89 -69.44,27 -131.26,27"
       style="fill:none;stroke:#385d8a;stroke-width:2;stroke-linecap:butt;stroke-linejoin:round;stroke-miterlimit:10;stroke-dasharray:none;stroke-opacity:1"
       id="path983" /><text
       transform="matrix(1,0,0,-1,325.25,368.64)"
       style="font-variant:normal;font-weight:normal;font-size:18px;font-family:Cantarell;-inkscape-font-specification:Cantarell;writing-mode:lr-tb;fill:#4d4d4d;fill-opacity:1;fill-rule:nonzero;stroke:none;"
       id="text987"><tspan
         x="0"
         y="0"
         id="tspan985"
         style="fill:#4d4d4d;">*</tspan></text><text
       transform="matrix(1,0,0,-1,334.25,368.64)"
       style="font-variant:normal;font-weight:normal;font-size:18px;font-family:Cantarell;-inkscape-font-specification:Cantarell;writing-mode:lr-tb;fill:#4d4d4d;fill-opacity:1;fill-rule:nonzero;stroke:none;"
       id="text991"><tspan
         x="0 9.3599997 15.39 21.6 30.834 34.919998 39.006001"
         y="0"
         sodipodi:role="line"
         id="tspan989">ptrPile</tspan></text><text
       transform="matrix(1,0,0,-1,25.2,309.55)"
       style="font-variant:normal;font-weight:normal;font-size:18px;font-family:Cantarell;-inkscape-font-specification:Cantarell;writing-mode:lr-tb;fill:#77933c;fill-opacity:1;fill-rule:nonzero;stroke:none"
       id="text995"><tspan
         x="0 11.07 20.034 27.648001 31.68 40.301998 46.206001 54.720001 60.75 64.800003 74.286003 83.736"
         y="0"
         sodipodi:role="line"
         id="tspan993">Déclaration:</tspan></text><text
       transform="matrix(1,0,0,-1,25.2,248.62)"
       style="font-variant:normal;font-weight:normal;font-size:18px;font-family:Cantarell;-inkscape-font-specification:Cantarell;writing-mode:lr-tb;fill:#604a7b;fill-opacity:1;fill-rule:nonzero;stroke:none"
       id="text999"><tspan
         x="0 10.422 19.872 25.92 34.883999 41.976002 49.014 58.032001"
         y="0"
         sodipodi:role="line"
         id="tspan997">Adresse:</tspan></text><text
       transform="matrix(1,0,0,-1,127.22,249.07)"
       style="font-variant:normal;font-weight:normal;font-size:18px;font-family:Cantarell;-inkscape-font-specification:Cantarell;writing-mode:lr-tb;fill:#4d4d4d;fill-opacity:1;fill-rule:nonzero;stroke:none;"
       id="text1003"><tspan
         x="0 9.1260004 16.92 26.046 35.172001 44.298"
         y="0"
         sodipodi:role="line"
         id="tspan1001">0x4550</tspan></text><text
       transform="matrix(1,0,0,-1,244.8,246.5)"
       style="font-variant:normal;font-weight:normal;font-size:18px;font-family:Cantarell;-inkscape-font-specification:Cantarell;writing-mode:lr-tb;fill:#4d4d4d;fill-opacity:1;fill-rule:nonzero;stroke:none;"
       id="text1007"><tspan
         x="0 9.1260004 16.92 26.046 35.172001 44.298"
         y="0"
         sodipodi:role="line"
         id="tspan1005">0x4552</tspan></text><text
       transform="matrix(1,0,0,-1,481.3,245.26)"
       style="font-variant:normal;font-weight:normal;font-size:18px;font-family:Cantarell;-inkscape-font-specification:Cantarell;writing-mode:lr-tb;fill:#4d4d4d;fill-opacity:1;fill-rule:nonzero;stroke:none;"
       id="text1011"><tspan
         x="0 9.1260004 16.92 26.046 35.172001 44.298"
         y="0"
         sodipodi:role="line"
         id="tspan1009">0x455C</tspan></text><text
       transform="matrix(1,0,0,-1,64.776,92.592)"
       style="font-variant:normal;font-weight:normal;font-size:18px;font-family:Cantarell;-inkscape-font-specification:Cantarell;writing-mode:lr-tb;fill:#4d4d4d;fill-opacity:1;fill-rule:nonzero;stroke:none;"
       id="text1015"><tspan
         x="0 9.1260004 16.92 27.341999 35.604 44.73"
         y="0"
         sodipodi:role="line"
         id="tspan1013">0xAF51</tspan></text><g
       id="g1017"><g
         id="g1019"
         clip-path="url(#clipPath1023)"><path
           d="m 408.05,214.84 9.52,-4.36 -5.93,-1.49 c 9.16,-8.61 32.54,-10.3 57.16,-4.12 v 0 c -24.62,-6.18 -48,-4.49 -57.16,4.12 l -5.93,-1.49 z"
           style="fill:#4f81bd;fill-opacity:1;fill-rule:evenodd;stroke:none"
           id="path1025" /></g></g><g
       id="g1027"><g
         id="g1029"
         clip-path="url(#clipPath1033)"><path
           d="m 468.8,204.87 c 30.26,7.6 52.12,24.38 48.83,37.48 v 0 c 3.29,-13.1 -18.57,-29.88 -48.83,-37.48 z"
           style="fill:#406898;fill-opacity:1;fill-rule:evenodd;stroke:none"
           id="path1035" /></g></g><g
       id="g1037"><g
         id="g1039"
         clip-path="url(#clipPath1043)"><path
           d="m 468.8,204.87 c 30.26,7.6 52.12,24.38 48.83,37.48 v 0 c 3.29,-13.1 -18.57,-29.88 -48.83,-37.48 v 0 c -24.62,-6.18 -48,-4.49 -57.16,4.12 l -5.93,-1.49 2.34,7.34 9.52,-4.36 -5.93,-1.49 c 9.16,-8.61 32.54,-10.3 57.16,-4.12"
           style="fill:none;stroke:#385d8a;stroke-width:2;stroke-linecap:butt;stroke-linejoin:round;stroke-miterlimit:10;stroke-dasharray:none;stroke-opacity:1"
           id="path1045" /></g></g><text
       transform="matrix(1,0,0,-1,378.17,225.53)"
       style="font-variant:normal;font-weight:normal;font-size:18px;font-family:Cantarell;-inkscape-font-specification:Cantarell;writing-mode:lr-tb;fill:#4d4d4d;fill-opacity:1;fill-rule:nonzero;stroke:none;"
       id="text1049"><tspan
         x="0 12.276 16.344 25.254 31.014 37.043999 43.02"
         y="0"
         sodipodi:role="line"
         id="tspan1047">&amp;lettre</tspan></text><path
       d="m 317.04,256.33 -187.82,-97.63 1.38,-2.66 187.82,97.63 z M 134.21,166.98 127.27,156 l 12.97,-0.64 c 0.83,-0.04 1.54,0.6 1.58,1.43 0.04,0.83 -0.6,1.53 -1.43,1.57 l -10.41,0.51 1.2,-2.3 5.56,8.81 c 0.45,0.7 0.24,1.63 -0.46,2.07 -0.7,0.44 -1.63,0.23 -2.07,-0.47 z"
       style="fill:#4a7ebb;fill-opacity:1;fill-rule:nonzero;stroke:none"
       id="path1051" /><g
       id="g1053"
       style="fill:#4d4d4d"><g
         id="g1055"
         clip-path="url(#clipPath1059)"
         style="fill:#4d4d4d"><path
           d="m 175.82,196.71 c 0.09,0.01 0.15,-0.03 0.2,-0.12 0.04,-0.1 0.06,-0.28 0.05,-0.54 -0.01,-0.27 -0.04,-0.45 -0.09,-0.54 -0.05,-0.08 -0.11,-0.12 -0.2,-0.11 l -2.3,0.31 1.32,-1.91 c 0.05,-0.07 0.05,-0.14 -0.01,-0.23 -0.06,-0.08 -0.21,-0.19 -0.45,-0.32 -0.23,-0.13 -0.4,-0.19 -0.51,-0.2 -0.1,0 -0.17,0.04 -0.19,0.13 l -0.88,2.14 -0.99,-2.08 c -0.04,-0.08 -0.11,-0.12 -0.21,-0.12 -0.11,0.01 -0.27,0.08 -0.5,0.22 -0.23,0.14 -0.37,0.25 -0.42,0.34 -0.05,0.09 -0.05,0.17 0.01,0.24 l 1.41,1.83 -2.3,-0.18 c -0.09,-0.01 -0.16,0.04 -0.21,0.13 -0.05,0.09 -0.06,0.27 -0.05,0.53 0.01,0.27 0.04,0.45 0.09,0.53 0.05,0.09 0.12,0.13 0.21,0.12 l 2.28,-0.31 -1.31,1.9 c -0.06,0.08 -0.06,0.16 0,0.24 0.06,0.09 0.21,0.2 0.45,0.32 0.24,0.13 0.41,0.2 0.51,0.2 0.11,0 0.17,-0.04 0.2,-0.13 l 0.88,-2.13 1,2.08 c 0.04,0.08 0.11,0.11 0.21,0.11 0.1,-0.01 0.26,-0.08 0.49,-0.23 0.23,-0.13 0.36,-0.24 0.42,-0.32 0.05,-0.09 0.05,-0.17 0,-0.25 l -1.42,-1.82 z"
           style="fill:#4d4d4d;fill-opacity:1;fill-rule:nonzero;stroke:none"
           id="path1061" /></g></g><g
       id="g1063"
       style="fill:#4d4d4d"><g
         id="g1065"
         clip-path="url(#clipPath1069)"
         style="fill:#4d4d4d"><path
           d="m 186.68,198.13 c 0.33,-0.61 0.56,-1.19 0.69,-1.75 0.13,-0.55 0.16,-1.07 0.09,-1.54 -0.07,-0.48 -0.25,-0.91 -0.53,-1.3 -0.27,-0.38 -0.66,-0.71 -1.14,-0.97 -0.21,-0.11 -0.41,-0.19 -0.61,-0.25 -0.19,-0.05 -0.4,-0.08 -0.61,-0.08 -0.22,0 -0.44,0.02 -0.68,0.06 -0.24,0.05 -0.5,0.11 -0.78,0.19 l 1.88,-3.48 c 0.02,-0.04 0.03,-0.08 0.02,-0.13 0,-0.04 -0.02,-0.08 -0.05,-0.13 -0.04,-0.04 -0.1,-0.09 -0.17,-0.15 -0.08,-0.05 -0.18,-0.11 -0.31,-0.18 -0.12,-0.07 -0.23,-0.12 -0.32,-0.16 -0.09,-0.03 -0.16,-0.05 -0.22,-0.06 -0.06,0 -0.11,0.01 -0.14,0.03 -0.04,0.02 -0.07,0.05 -0.09,0.09 l -5.25,9.72 c -0.03,0.05 -0.04,0.09 -0.04,0.13 0,0.03 0.02,0.07 0.06,0.12 0.03,0.04 0.08,0.09 0.15,0.14 0.07,0.04 0.15,0.1 0.26,0.15 0.11,0.06 0.2,0.1 0.27,0.13 0.07,0.03 0.14,0.05 0.2,0.06 0.05,0 0.1,-0.01 0.13,-0.03 0.04,-0.01 0.07,-0.05 0.09,-0.09 l 0.51,-0.94 c 0.09,0.33 0.19,0.63 0.3,0.9 0.11,0.26 0.24,0.5 0.38,0.71 0.14,0.22 0.3,0.41 0.48,0.57 0.18,0.17 0.39,0.32 0.62,0.44 0.5,0.27 0.99,0.41 1.45,0.41 0.46,-0.01 0.89,-0.12 1.3,-0.34 0.41,-0.22 0.79,-0.53 1.13,-0.92 0.35,-0.4 0.66,-0.85 0.93,-1.35 z m -1.24,-0.86 c -0.19,0.35 -0.4,0.68 -0.64,0.99 -0.23,0.3 -0.49,0.54 -0.76,0.73 -0.27,0.19 -0.56,0.3 -0.86,0.33 -0.31,0.03 -0.63,-0.04 -0.96,-0.22 -0.17,-0.09 -0.32,-0.2 -0.45,-0.34 -0.14,-0.13 -0.26,-0.3 -0.37,-0.49 -0.11,-0.2 -0.2,-0.43 -0.29,-0.7 -0.09,-0.27 -0.17,-0.59 -0.23,-0.95 l 1.49,-2.77 c 0.59,-0.24 1.1,-0.38 1.54,-0.44 0.43,-0.06 0.83,0.01 1.18,0.2 0.32,0.17 0.55,0.4 0.7,0.68 0.15,0.28 0.22,0.58 0.22,0.92 0.01,0.33 -0.04,0.68 -0.15,1.04 -0.1,0.35 -0.24,0.69 -0.42,1.02 z m 8.36,0.73 c 0.08,-0.15 0.13,-0.28 0.16,-0.38 0.03,-0.1 0.03,-0.18 0.01,-0.24 -0.02,-0.06 -0.06,-0.14 -0.12,-0.22 -0.07,-0.08 -0.14,-0.16 -0.24,-0.24 -0.09,-0.08 -0.19,-0.16 -0.3,-0.24 -0.11,-0.08 -0.23,-0.15 -0.34,-0.21 -0.37,-0.2 -0.7,-0.32 -1.01,-0.36 -0.31,-0.05 -0.6,-0.02 -0.87,0.09 -0.27,0.1 -0.52,0.28 -0.75,0.54 -0.24,0.26 -0.47,0.58 -0.68,0.99 l -2.2,4.06 -0.97,-0.52 c -0.08,-0.04 -0.17,-0.04 -0.26,0.02 -0.09,0.06 -0.18,0.18 -0.28,0.37 -0.06,0.09 -0.09,0.18 -0.12,0.25 -0.02,0.08 -0.03,0.14 -0.04,0.2 0,0.05 0.01,0.1 0.03,0.13 0.03,0.04 0.06,0.07 0.1,0.09 l 0.97,0.52 -0.9,1.66 c -0.02,0.03 -0.02,0.07 -0.02,0.11 0,0.04 0.02,0.09 0.05,0.14 0.04,0.05 0.1,0.1 0.17,0.16 0.08,0.05 0.18,0.11 0.3,0.18 0.13,0.07 0.24,0.12 0.33,0.15 0.09,0.04 0.16,0.06 0.22,0.06 0.06,0 0.11,-0.01 0.14,-0.03 0.04,-0.02 0.07,-0.05 0.09,-0.08 l 0.89,-1.66 1.79,0.97 c 0.04,0.02 0.08,0.03 0.12,0.03 0.04,0 0.09,-0.02 0.13,-0.05 0.05,-0.03 0.1,-0.08 0.14,-0.14 0.05,-0.06 0.1,-0.14 0.15,-0.24 0.1,-0.18 0.15,-0.33 0.15,-0.44 0,-0.11 -0.04,-0.18 -0.12,-0.22 l -1.78,-0.97 2.09,-3.88 c 0.26,-0.48 0.53,-0.8 0.8,-0.97 0.28,-0.17 0.6,-0.15 0.96,0.04 0.12,0.07 0.22,0.14 0.3,0.21 0.08,0.07 0.15,0.14 0.21,0.21 0.06,0.06 0.11,0.12 0.14,0.17 0.04,0.05 0.08,0.09 0.13,0.11 0.02,0.02 0.05,0.02 0.08,0.02 0.03,0 0.06,-0.01 0.09,-0.04 0.04,-0.03 0.07,-0.07 0.12,-0.13 0.04,-0.06 0.09,-0.13 0.14,-0.22 z m 2.49,9.08 c 0.06,-0.11 0.11,-0.21 0.14,-0.29 0.04,-0.08 0.06,-0.14 0.07,-0.2 0.01,-0.05 0.01,-0.09 0,-0.13 -0.01,-0.03 -0.04,-0.06 -0.08,-0.08 -0.04,-0.03 -0.1,-0.04 -0.17,-0.05 -0.07,-0.01 -0.15,-0.02 -0.24,-0.04 -0.09,-0.02 -0.18,-0.04 -0.28,-0.07 -0.11,-0.03 -0.21,-0.07 -0.32,-0.13 -0.13,-0.07 -0.24,-0.17 -0.34,-0.28 -0.1,-0.12 -0.18,-0.28 -0.25,-0.47 -0.08,-0.19 -0.13,-0.43 -0.18,-0.7 -0.04,-0.28 -0.08,-0.61 -0.1,-0.99 l 2.47,-4.58 c 0.02,-0.04 0.03,-0.08 0.03,-0.12 -0.01,-0.04 -0.03,-0.08 -0.07,-0.13 -0.03,-0.04 -0.09,-0.09 -0.16,-0.15 -0.08,-0.05 -0.18,-0.12 -0.31,-0.19 -0.13,-0.06 -0.23,-0.11 -0.32,-0.15 -0.09,-0.03 -0.16,-0.05 -0.22,-0.06 -0.06,0 -0.11,0 -0.14,0.02 -0.04,0.02 -0.06,0.05 -0.09,0.09 l -3.76,6.96 c -0.02,0.04 -0.03,0.08 -0.03,0.12 0,0.04 0.02,0.08 0.05,0.13 0.04,0.04 0.09,0.09 0.15,0.14 0.07,0.05 0.17,0.1 0.28,0.16 0.12,0.07 0.21,0.11 0.29,0.15 0.08,0.03 0.15,0.04 0.2,0.04 0.06,0 0.1,-0.01 0.13,-0.03 0.04,-0.01 0.06,-0.04 0.09,-0.09 l 0.54,-1.01 c 0.04,0.38 0.1,0.71 0.17,0.97 0.08,0.27 0.16,0.49 0.26,0.67 0.09,0.18 0.2,0.33 0.33,0.45 0.12,0.12 0.26,0.22 0.41,0.3 0.07,0.04 0.15,0.07 0.23,0.11 0.09,0.04 0.19,0.07 0.29,0.1 0.11,0.03 0.2,0.05 0.29,0.07 0.09,0.01 0.16,0.02 0.2,0.01 0.05,-0.01 0.08,-0.03 0.11,-0.04 0.02,-0.02 0.04,-0.05 0.07,-0.08 0.03,-0.03 0.06,-0.08 0.1,-0.15 0.04,-0.07 0.09,-0.16 0.16,-0.28 z m 6.36,6.98 c 0.05,-0.1 0.09,-0.19 0.12,-0.27 0.03,-0.08 0.05,-0.14 0.05,-0.2 0,-0.06 -0.01,-0.1 -0.04,-0.14 -0.02,-0.04 -0.05,-0.07 -0.09,-0.09 l -2.82,-1.52 4.69,-8.68 c 0.02,-0.04 0.03,-0.08 0.03,-0.12 -0.01,-0.05 -0.03,-0.09 -0.07,-0.14 -0.04,-0.04 -0.1,-0.09 -0.18,-0.15 -0.08,-0.06 -0.18,-0.13 -0.31,-0.2 -0.12,-0.06 -0.23,-0.11 -0.33,-0.15 -0.09,-0.03 -0.17,-0.05 -0.23,-0.06 -0.06,-0.01 -0.11,-0.01 -0.15,0.01 -0.04,0.02 -0.07,0.05 -0.09,0.09 l -4.69,8.68 -2.81,-1.52 c -0.04,-0.02 -0.09,-0.03 -0.13,-0.03 -0.05,0 -0.09,0.02 -0.13,0.05 -0.05,0.03 -0.1,0.08 -0.15,0.15 -0.05,0.06 -0.1,0.14 -0.16,0.24 -0.05,0.1 -0.09,0.19 -0.12,0.27 -0.02,0.08 -0.04,0.15 -0.04,0.21 -0.01,0.06 0,0.11 0.02,0.14 0.03,0.04 0.06,0.07 0.1,0.1 l 6.96,3.76 c 0.04,0.02 0.08,0.03 0.13,0.03 0.04,-0.01 0.09,-0.02 0.14,-0.06 0.04,-0.03 0.09,-0.08 0.14,-0.15 0.06,-0.07 0.11,-0.16 0.16,-0.25 z m 10.26,-6.41 c 0.03,-0.06 0.04,-0.12 0.01,-0.17 -0.02,-0.05 -0.06,-0.11 -0.13,-0.16 -0.06,-0.06 -0.16,-0.12 -0.3,-0.2 -0.14,-0.07 -0.25,-0.12 -0.34,-0.15 -0.08,-0.02 -0.15,-0.03 -0.21,-0.02 -0.05,0.01 -0.09,0.05 -0.13,0.11 l -0.37,0.69 c -0.13,-0.48 -0.33,-0.92 -0.61,-1.3 -0.28,-0.39 -0.62,-0.69 -1.04,-0.91 -0.37,-0.2 -0.72,-0.33 -1.07,-0.4 -0.35,-0.06 -0.68,-0.06 -0.98,0.01 -0.31,0.06 -0.59,0.2 -0.85,0.4 -0.26,0.2 -0.48,0.47 -0.66,0.8 -0.21,0.39 -0.31,0.78 -0.31,1.15 0,0.38 0.1,0.74 0.3,1.09 0.2,0.35 0.48,0.7 0.87,1.02 0.38,0.33 0.84,0.64 1.38,0.94 l 0.96,0.52 -0.29,0.54 c -0.15,0.26 -0.3,0.49 -0.47,0.66 -0.17,0.18 -0.36,0.3 -0.56,0.37 -0.2,0.07 -0.41,0.08 -0.65,0.04 -0.24,-0.04 -0.51,-0.14 -0.8,-0.29 -0.32,-0.17 -0.58,-0.36 -0.79,-0.57 -0.21,-0.21 -0.38,-0.42 -0.52,-0.61 -0.14,-0.19 -0.25,-0.36 -0.34,-0.5 -0.09,-0.14 -0.16,-0.23 -0.22,-0.26 -0.04,-0.03 -0.08,-0.04 -0.13,-0.03 -0.04,0 -0.08,0.02 -0.13,0.05 -0.04,0.03 -0.09,0.07 -0.13,0.13 -0.05,0.06 -0.09,0.13 -0.13,0.2 -0.07,0.13 -0.12,0.24 -0.14,0.32 -0.02,0.09 -0.02,0.18 0.01,0.29 0.04,0.1 0.12,0.24 0.24,0.43 0.12,0.18 0.27,0.37 0.45,0.56 0.18,0.2 0.39,0.39 0.63,0.58 0.23,0.19 0.49,0.36 0.75,0.5 0.5,0.27 0.96,0.45 1.37,0.52 0.41,0.08 0.79,0.07 1.12,-0.04 0.34,-0.1 0.64,-0.29 0.91,-0.56 0.28,-0.27 0.53,-0.62 0.77,-1.05 z m -2.98,2.49 -1.09,-0.58 c -0.35,-0.19 -0.64,-0.39 -0.87,-0.59 -0.22,-0.19 -0.39,-0.4 -0.5,-0.61 -0.11,-0.2 -0.16,-0.41 -0.15,-0.62 0.01,-0.2 0.07,-0.41 0.18,-0.62 0.2,-0.36 0.47,-0.59 0.81,-0.68 0.35,-0.09 0.73,-0.02 1.14,0.2 0.34,0.18 0.6,0.44 0.79,0.76 0.2,0.32 0.36,0.75 0.48,1.27 z m 8.68,3.05 c 0.19,-0.36 0.3,-0.71 0.32,-1.06 0.02,-0.35 -0.04,-0.68 -0.18,-1.01 -0.14,-0.32 -0.35,-0.62 -0.63,-0.9 -0.29,-0.28 -0.63,-0.52 -1.03,-0.74 -0.25,-0.13 -0.49,-0.24 -0.74,-0.33 -0.25,-0.08 -0.47,-0.14 -0.68,-0.17 -0.21,-0.04 -0.4,-0.06 -0.56,-0.06 -0.15,-0.01 -0.28,0 -0.36,0.02 -0.08,0.03 -0.16,0.08 -0.24,0.15 -0.08,0.08 -0.16,0.2 -0.24,0.36 -0.06,0.1 -0.1,0.19 -0.12,0.26 -0.03,0.07 -0.04,0.13 -0.05,0.18 -0.01,0.05 0,0.09 0.02,0.13 0.02,0.03 0.04,0.06 0.08,0.08 0.06,0.03 0.16,0.04 0.31,0.03 0.14,-0.01 0.32,-0.02 0.53,-0.01 0.21,0.01 0.44,0.03 0.7,0.08 0.26,0.05 0.53,0.16 0.82,0.31 0.22,0.12 0.4,0.25 0.55,0.39 0.15,0.14 0.27,0.29 0.35,0.45 0.08,0.16 0.11,0.33 0.11,0.51 -0.01,0.17 -0.06,0.36 -0.16,0.55 -0.11,0.19 -0.25,0.33 -0.42,0.41 -0.18,0.08 -0.37,0.13 -0.59,0.14 -0.22,0.02 -0.46,0.01 -0.71,-0.03 -0.25,-0.03 -0.51,-0.06 -0.77,-0.09 -0.27,-0.03 -0.54,-0.05 -0.8,-0.05 -0.27,0 -0.53,0.03 -0.78,0.11 -0.26,0.07 -0.49,0.19 -0.71,0.35 -0.22,0.17 -0.42,0.41 -0.58,0.72 -0.15,0.27 -0.24,0.56 -0.27,0.87 -0.03,0.31 0.01,0.61 0.12,0.91 0.11,0.3 0.29,0.6 0.55,0.88 0.26,0.29 0.59,0.54 1.02,0.77 0.18,0.1 0.38,0.19 0.58,0.26 0.2,0.07 0.39,0.12 0.56,0.15 0.18,0.04 0.33,0.06 0.47,0.06 0.13,0 0.24,0 0.32,-0.02 0.07,-0.01 0.13,-0.02 0.16,-0.04 0.04,-0.03 0.07,-0.05 0.1,-0.09 0.03,-0.03 0.06,-0.08 0.1,-0.13 0.04,-0.05 0.08,-0.12 0.12,-0.2 0.05,-0.09 0.09,-0.17 0.11,-0.24 0.03,-0.06 0.05,-0.12 0.05,-0.18 0.01,-0.05 0,-0.09 -0.02,-0.12 -0.01,-0.03 -0.04,-0.06 -0.07,-0.07 -0.04,-0.03 -0.13,-0.04 -0.24,-0.03 -0.12,0.01 -0.27,0.01 -0.44,0 -0.18,-0.01 -0.37,-0.04 -0.59,-0.08 -0.22,-0.05 -0.45,-0.13 -0.69,-0.27 -0.22,-0.11 -0.4,-0.24 -0.54,-0.38 -0.13,-0.14 -0.23,-0.28 -0.29,-0.43 -0.06,-0.14 -0.08,-0.29 -0.07,-0.45 0.02,-0.15 0.06,-0.3 0.14,-0.44 0.11,-0.2 0.25,-0.34 0.43,-0.43 0.18,-0.08 0.37,-0.12 0.6,-0.14 0.22,-0.01 0.45,0 0.71,0.03 0.26,0.03 0.52,0.06 0.78,0.09 0.27,0.03 0.54,0.05 0.81,0.06 0.27,0.01 0.54,-0.02 0.78,-0.09 0.25,-0.06 0.49,-0.18 0.7,-0.34 0.22,-0.16 0.41,-0.39 0.57,-0.69 z"
           style="fill:#4d4d4d;fill-opacity:1;fill-rule:nonzero;stroke:none"
           id="path1071" /></g></g><text
       style="font-variant:normal;font-weight:normal;font-size:18px;font-family:Cantarell;-inkscape-font-specification:Cantarell;writing-mode:lr-tb;fill:#ffffff;fill-opacity:1;fill-rule:nonzero;stroke:none;stroke-width:0.999998"
       id="text917-3"
       x="518.55347"
       y="-280.29117"
       transform="scale(1,-1)"><tspan
         sodipodi:role="line"
         id="tspan915-6"
         style="stroke-width:0.999998"
         x="518.55347"
         y="-280.29117">'C'</tspan></text></g></svg>
