<?xml version="1.0" encoding="UTF-8" standalone="no"?>
<svg
   xmlns:dc="http://purl.org/dc/elements/1.1/"
   xmlns:cc="http://creativecommons.org/ns#"
   xmlns:rdf="http://www.w3.org/1999/02/22-rdf-syntax-ns#"
   xmlns:svg="http://www.w3.org/2000/svg"
   xmlns="http://www.w3.org/2000/svg"
   xmlns:sodipodi="http://sodipodi.sourceforge.net/DTD/sodipodi-0.dtd"
   xmlns:inkscape="http://www.inkscape.org/namespaces/inkscape"
   version="1.1"
   id="svg851"
   xml:space="preserve"
   width="829.96954"
   height="150.79974"
   viewBox="0 0 829.96954 150.79975"
   sodipodi:docname="tableauN.svg"
   inkscape:version="1.0.1 (3bc2e813f5, 2020-09-07)"><metadata
     id="metadata857"><rdf:RDF><cc:Work
         rdf:about=""><dc:format>image/svg+xml</dc:format><dc:type
           rdf:resource="http://purl.org/dc/dcmitype/StillImage" /><dc:title /></cc:Work></rdf:RDF></metadata><defs
     id="defs855"><clipPath
       clipPathUnits="userSpaceOnUse"
       id="clipPath867"><path
         d="M 0,1.2207e-4 H 720 V 540.00012 H 0 Z"
         clip-rule="evenodd"
         id="path865" /></clipPath><clipPath
       clipPathUnits="userSpaceOnUse"
       id="clipPath1437"><path
         d="M -2.33e-7,540 H 720 V 0 L -1.217e-6,6.104e-6"
         clip-rule="evenodd"
         id="path1435" /></clipPath></defs><sodipodi:namedview
     pagecolor="#ffffff"
     bordercolor="#666666"
     borderopacity="1"
     objecttolerance="10"
     gridtolerance="10"
     guidetolerance="10"
     inkscape:pageopacity="0"
     inkscape:pageshadow="2"
     inkscape:window-width="1676"
     inkscape:window-height="1014"
     id="namedview853"
     showgrid="false"
     fit-margin-top="0"
     fit-margin-left="0"
     fit-margin-right="0"
     fit-margin-bottom="0"
     inkscape:zoom="1.3388889"
     inkscape:cx="412.74827"
     inkscape:cy="140.35238"
     inkscape:window-x="0"
     inkscape:window-y="34"
     inkscape:window-maximized="1"
     inkscape:current-layer="g859"
     inkscape:document-rotation="0" /><g
     id="g859"
     inkscape:groupmode="layer"
     inkscape:label="SysInfo_IntroC_Chanel_190930"
     transform="matrix(1.3333333,0,0,-1.3333333,-11.366406,221.67432)"><path
       d="M 87.638,78 H 150 v 42 H 87.638 Z"
       style="fill:#4f81bd;fill-opacity:1;fill-rule:evenodd;stroke:none"
       id="path1341" /><path
       d="M 87.638,78 H 150 v 42 H 87.638 Z"
       style="fill:none;stroke:#385d8a;stroke-width:2;stroke-linecap:butt;stroke-linejoin:round;stroke-miterlimit:10;stroke-dasharray:none;stroke-opacity:1"
       id="path1343" /><text
       transform="matrix(1,0,0,-1,101.98,92.904)"
       style="font-variant:normal;font-weight:normal;font-size:18px;font-family:Cantarell;-inkscape-font-specification:Cantarell;writing-mode:lr-tb;fill:#ffffff;fill-opacity:1;fill-rule:nonzero;stroke:none"
       id="text1347"><tspan
         x="0 5.526 14.652 19.08 28.205999"
         y="0"
         sodipodi:role="line"
         id="tspan1345">[0,0]</tspan></text><path
       d="m 147.64,78 h 62.362 v 42 H 147.64 Z"
       style="fill:#4f81bd;fill-opacity:1;fill-rule:evenodd;stroke:none"
       id="path1349" /><path
       d="m 147.64,78 h 62.362 v 42 H 147.64 Z"
       style="fill:none;stroke:#385d8a;stroke-width:2;stroke-linecap:butt;stroke-linejoin:round;stroke-miterlimit:10;stroke-dasharray:none;stroke-opacity:1"
       id="path1351" /><text
       transform="matrix(1,0,0,-1,161.98,92.904)"
       style="font-variant:normal;font-weight:normal;font-size:18px;font-family:Cantarell;-inkscape-font-specification:Cantarell;writing-mode:lr-tb;fill:#ffffff;fill-opacity:1;fill-rule:nonzero;stroke:none"
       id="text1355"><tspan
         x="0 5.526 14.652 19.08 28.205999"
         y="0"
         sodipodi:role="line"
         id="tspan1353">[0,1]</tspan></text><path
       d="m 207.64,78 h 62.362 v 42 H 207.64 Z"
       style="fill:#4f81bd;fill-opacity:1;fill-rule:evenodd;stroke:none"
       id="path1357" /><path
       d="m 207.64,78 h 62.362 v 42 H 207.64 Z"
       style="fill:none;stroke:#385d8a;stroke-width:2;stroke-linecap:butt;stroke-linejoin:round;stroke-miterlimit:10;stroke-dasharray:none;stroke-opacity:1"
       id="path1359" /><text
       transform="matrix(1,0,0,-1,232.56,92.904)"
       style="font-variant:normal;font-weight:normal;font-size:18px;font-family:Cantarell;-inkscape-font-specification:Cantarell;writing-mode:lr-tb;fill:#ffffff;fill-opacity:1;fill-rule:nonzero;stroke:none"
       id="text1363"><tspan
         x="0"
         y="0"
         id="tspan1361">…</tspan></text><path
       d="m 267.64,78 h 62.362 v 42 H 267.64 Z"
       style="fill:#4f81bd;fill-opacity:1;fill-rule:evenodd;stroke:none"
       id="path1365" /><path
       d="m 267.64,78 h 62.362 v 42 H 267.64 Z"
       style="fill:none;stroke:#385d8a;stroke-width:2;stroke-linecap:butt;stroke-linejoin:round;stroke-miterlimit:10;stroke-dasharray:none;stroke-opacity:1"
       id="path1367" /><text
       transform="matrix(1,0,0,-1,278.88,92.904)"
       style="font-variant:normal;font-weight:normal;font-size:18px;font-family:Cantarell;-inkscape-font-specification:Cantarell;writing-mode:lr-tb;fill:#ffffff;fill-opacity:1;fill-rule:nonzero;stroke:none"
       id="text1371"><tspan
         x="0 5.526 14.652 19.08 34.470001"
         y="0"
         sodipodi:role="line"
         id="tspan1369">[0,M]</tspan></text><path
       d="m 327.64,78 h 62.362 v 42 H 327.64 Z"
       style="fill:#4f81bd;fill-opacity:1;fill-rule:evenodd;stroke:none"
       id="path1373" /><path
       d="m 327.64,78 h 62.362 v 42 H 327.64 Z"
       style="fill:none;stroke:#385d8a;stroke-width:2;stroke-linecap:butt;stroke-linejoin:round;stroke-miterlimit:10;stroke-dasharray:none;stroke-opacity:1"
       id="path1375" /><text
       transform="matrix(1,0,0,-1,342,92.904)"
       style="font-variant:normal;font-weight:normal;font-size:18px;font-family:Cantarell;-inkscape-font-specification:Cantarell;writing-mode:lr-tb;fill:#ffffff;fill-opacity:1;fill-rule:nonzero;stroke:none"
       id="text1379"><tspan
         x="0 5.526 14.652 19.08 28.205999"
         y="0"
         sodipodi:role="line"
         id="tspan1377">[1,0]</tspan></text><path
       d="m 387.64,78 h 62.362 v 42 H 387.64 Z"
       style="fill:#4f81bd;fill-opacity:1;fill-rule:evenodd;stroke:none"
       id="path1381" /><path
       d="m 387.64,78 h 62.362 v 42 H 387.64 Z"
       style="fill:none;stroke:#385d8a;stroke-width:2;stroke-linecap:butt;stroke-linejoin:round;stroke-miterlimit:10;stroke-dasharray:none;stroke-opacity:1"
       id="path1383" /><text
       transform="matrix(1,0,0,-1,412.58,92.904)"
       style="font-variant:normal;font-weight:normal;font-size:18px;font-family:Cantarell;-inkscape-font-specification:Cantarell;writing-mode:lr-tb;fill:#ffffff;fill-opacity:1;fill-rule:nonzero;stroke:none"
       id="text1387"><tspan
         x="0"
         y="0"
         id="tspan1385">…</tspan></text><path
       d="m 447.64,78 h 62.362 v 42 H 447.64 Z"
       style="fill:#4f81bd;fill-opacity:1;fill-rule:evenodd;stroke:none"
       id="path1389" /><path
       d="m 447.64,78 h 62.362 v 42 H 447.64 Z"
       style="fill:none;stroke:#385d8a;stroke-width:2;stroke-linecap:butt;stroke-linejoin:round;stroke-miterlimit:10;stroke-dasharray:none;stroke-opacity:1"
       id="path1391" /><text
       transform="matrix(1,0,0,-1,458.9,92.904)"
       style="font-variant:normal;font-weight:normal;font-size:18px;font-family:Cantarell;-inkscape-font-specification:Cantarell;writing-mode:lr-tb;fill:#ffffff;fill-opacity:1;fill-rule:nonzero;stroke:none"
       id="text1395"><tspan
         x="0 5.526 14.652 19.08 34.470001"
         y="0"
         sodipodi:role="line"
         id="tspan1393">[1,M]</tspan></text><path
       d="m 507.64,78 h 62.362 v 42 H 507.64 Z"
       style="fill:#4f81bd;fill-opacity:1;fill-rule:evenodd;stroke:none"
       id="path1397" /><path
       d="m 507.64,78 h 62.362 v 42 H 507.64 Z"
       style="fill:none;stroke:#385d8a;stroke-width:2;stroke-linecap:butt;stroke-linejoin:round;stroke-miterlimit:10;stroke-dasharray:none;stroke-opacity:1"
       id="path1399" /><text
       transform="matrix(1,0,0,-1,532.61,92.904)"
       style="font-variant:normal;font-weight:normal;font-size:18px;font-family:Cantarell;-inkscape-font-specification:Cantarell;writing-mode:lr-tb;fill:#ffffff;fill-opacity:1;fill-rule:nonzero;stroke:none"
       id="text1403"><tspan
         x="0"
         y="0"
         id="tspan1401">…</tspan></text><path
       d="m 567.64,78 h 62.362 v 42 H 567.64 Z"
       style="fill:#4f81bd;fill-opacity:1;fill-rule:evenodd;stroke:none"
       id="path1405" /><path
       d="m 567.64,78 h 62.362 v 42 H 567.64 Z"
       style="fill:none;stroke:#385d8a;stroke-width:2;stroke-linecap:butt;stroke-linejoin:round;stroke-miterlimit:10;stroke-dasharray:none;stroke-opacity:1"
       id="path1407" /><text
       transform="matrix(1,0,0,-1,577.61,92.904)"
       style="font-variant:normal;font-weight:normal;font-size:18px;font-family:Cantarell;-inkscape-font-specification:Cantarell;writing-mode:lr-tb;fill:#ffffff;fill-opacity:1;fill-rule:nonzero;stroke:none"
       id="text1411"><tspan
         x="0 5.526 17.153999 21.6 36.990002"
         y="0"
         sodipodi:role="line"
         id="tspan1409">[N,M]</tspan></text><g
       id="g1413"><path
         d="M 102,120 V 78"
         style="fill:none;stroke:#376092;stroke-width:1.5;stroke-linecap:butt;stroke-linejoin:round;stroke-miterlimit:10;stroke-dasharray:6, 4.5;stroke-dashoffset:0;stroke-opacity:1"
         id="path1415" /></g><g
       id="g1417"><path
         d="M 117.43,120 V 78"
         style="fill:none;stroke:#376092;stroke-width:1.5;stroke-linecap:butt;stroke-linejoin:round;stroke-miterlimit:10;stroke-dasharray:6, 4.5;stroke-dashoffset:0;stroke-opacity:1"
         id="path1419" /></g><g
       id="g1421"><path
         d="M 132,120 V 78"
         style="fill:none;stroke:#376092;stroke-width:1.5;stroke-linecap:butt;stroke-linejoin:round;stroke-miterlimit:10;stroke-dasharray:6, 4.5;stroke-dashoffset:0;stroke-opacity:1"
         id="path1423" /></g><path
       d="m 102.24328,67.304766 -7.626417,7.021587 0.352244,0.324221 7.626423,-7.021585 z m -6.516515,3.000264 -1.283366,4.500398 4.877586,-1.161394 c 0.132923,-0.03243 0.212676,-0.157755 0.177451,-0.280185 -0.03456,-0.12243 -0.17147,-0.195502 -0.304392,-0.163079 l -4.464197,1.06461 0.304392,0.280185 1.174369,-4.113265 c 0.03522,-0.12243 -0.04386,-0.247764 -0.177451,-0.280186 -0.132922,-0.03243 -0.269168,0.04065 -0.304392,0.163079 z"
       style="fill:#4a7ebb;fill-opacity:1;fill-rule:nonzero;stroke:none;stroke-width:0.999998"
       id="path1425" /><text
       transform="scale(1,-1)"
       style="font-variant:normal;font-weight:normal;font-size:15.96px;font-family:Cantarell;-inkscape-font-specification:Cantarell;writing-mode:lr-tb;fill:#4d4d4d;fill-opacity:1;fill-rule:nonzero;stroke:none;"
       id="text1429"
       x="104.75195"
       y="-61.104183"><tspan
         x="104.75195 114.99827 123.37727 126.98422 135.39514 142.06642 147.34918 155.15363 160.53215 164.36255 172.31062 180.68964 184.29659 197.04863 204.91692 217.66895 226.07988 229.75067 235.03343"
         y="-61.104183"
         sodipodi:role="line"
         id="tspan1427">Un octet en mémoire</tspan></text><g
       id="g1431"><g
         id="g1433"
         clip-path="url(#clipPath1437)"><path
           d="m 84,118.5 c 0,8.7 1.175,15.75 2.625,15.75 H 113.5 c 1.45,0 2.63,7.05 2.63,15.75 0,-8.7 1.17,-15.75 2.62,-15.75 h 28.63 c 1.44,0 2.62,-7.05 2.62,-15.75"
           style="fill:none;stroke:#4a7ebb;stroke-width:0.75;stroke-linecap:butt;stroke-linejoin:round;stroke-miterlimit:10;stroke-dasharray:none;stroke-opacity:1"
           id="path1439" /></g></g><text
       transform="matrix(1,0,0,-1,115.22,155.33)"
       style="font-variant:normal;font-weight:normal;font-size:15.96px;font-family:Cantarell;-inkscape-font-specification:Cantarell;writing-mode:lr-tb;fill:#4d4d4d;fill-opacity:1;fill-rule:nonzero;stroke:none;"
       id="text1443"><tspan
         x="0 10.24632 18.62532 22.232281 30.11652 33.819241 41.767319 54.455521 62.403599 70.654922 76.03344 79.73616 88.115158 96.494164 100.10112 105.30408 112.94892 121.3758 125.07852 133.0266 140.67143"
         y="0"
         sodipodi:role="line"
         id="tspan1441">Un élément du tableau</tspan></text></g></svg>
