<?xml version="1.0" encoding="UTF-8" standalone="no"?>
<svg
   xmlns:dc="http://purl.org/dc/elements/1.1/"
   xmlns:cc="http://creativecommons.org/ns#"
   xmlns:rdf="http://www.w3.org/1999/02/22-rdf-syntax-ns#"
   xmlns:svg="http://www.w3.org/2000/svg"
   xmlns="http://www.w3.org/2000/svg"
   xmlns:sodipodi="http://sodipodi.sourceforge.net/DTD/sodipodi-0.dtd"
   xmlns:inkscape="http://www.inkscape.org/namespaces/inkscape"
   version="1.1"
   id="svg815"
   xml:space="preserve"
   width="976.08447"
   height="541.61554"
   viewBox="0 0 976.08447 541.61554"
   sodipodi:docname="virtualization.svg"
   inkscape:version="1.0.1 (3bc2e813f5, 2020-09-07, custom)"><metadata
     id="metadata821"><rdf:RDF><cc:Work
         rdf:about=""><dc:format>image/svg+xml</dc:format><dc:type
           rdf:resource="http://purl.org/dc/dcmitype/StillImage" /><dc:title /></cc:Work></rdf:RDF></metadata><defs
     id="defs819"><clipPath
       clipPathUnits="userSpaceOnUse"
       id="clipPath831"><path
         d="M 0,0.028 H 719.971 V 539.999 H 0 Z"
         id="path829"
         inkscape:connector-curvature="0"
         style="clip-rule:evenodd" /></clipPath></defs><sodipodi:namedview
     pagecolor="#000000"
     bordercolor="#666666"
     borderopacity="1"
     objecttolerance="10"
     gridtolerance="10"
     guidetolerance="10"
     inkscape:pageopacity="0"
     inkscape:pageshadow="2"
     inkscape:window-width="1676"
     inkscape:window-height="1014"
     id="namedview817"
     showgrid="false"
     inkscape:pagecheckerboard="true"
     fit-margin-top="10"
     fit-margin-left="10"
     fit-margin-right="10"
     fit-margin-bottom="10"
     inkscape:zoom="1.1819444"
     inkscape:cx="563.93698"
     inkscape:cy="289.42989"
     inkscape:window-x="0"
     inkscape:window-y="34"
     inkscape:window-maximized="0"
     inkscape:current-layer="g823"
     inkscape:document-rotation="0" /><g
     id="g823"
     inkscape:groupmode="layer"
     inkscape:label="SysInfo_Processus_Chanel_191118"
     transform="matrix(1.3333333,0,0,-1.3333333,25.400197,545.29401)"><path
   d="M 75.969,120.217 H 20.183 v 17.859 h 111.571 v -17.859 z"
   style="fill:#d7e4bd;fill-opacity:1;fill-rule:evenodd;stroke:none"
   id="path861"
   inkscape:connector-curvature="0" /><g
   id="g863"><path
     d="M 75.969,120.217 H 20.183 v 17.859 h 111.571 v -17.859 z"
     style="fill:none;stroke:#8eb4e3;stroke-width:2.01256;stroke-linecap:butt;stroke-linejoin:round;stroke-miterlimit:10;stroke-dasharray:none;stroke-opacity:1"
     id="path865"
     inkscape:connector-curvature="0" /></g><g
   id="g867"
   style="fill:#ffffff"><path
     d="M 75.969,102.217 H 20.183 v 17.859 h 111.571 v -17.859 z"
     style="fill:#ffffff;stroke:#8eb4e3;stroke-width:2.01256;stroke-linecap:butt;stroke-linejoin:round;stroke-miterlimit:10;stroke-dasharray:none;stroke-opacity:1"
     id="path869"
     inkscape:connector-curvature="0" /></g><path
   d="M 75.969,84.217 H 20.183 v 17.859 H 131.754 V 84.217 Z"
   style="fill:#e6b9b8;fill-opacity:1;fill-rule:evenodd;stroke:none"
   id="path871"
   inkscape:connector-curvature="0" /><g
   id="g873"><path
     d="M 75.969,84.217 H 20.183 v 17.859 H 131.754 V 84.217 Z"
     style="fill:none;stroke:#8eb4e3;stroke-width:2.01256;stroke-linecap:butt;stroke-linejoin:round;stroke-miterlimit:10;stroke-dasharray:none;stroke-opacity:1"
     id="path875"
     inkscape:connector-curvature="0" /></g><path
   d="M 75.969,138.217 H 20.183 v 17.859 h 111.571 v -17.859 z"
   style="fill:#d7e4bd;fill-opacity:1;fill-rule:evenodd;stroke:none"
   id="path877"
   inkscape:connector-curvature="0" /><g
   id="g879"><path
     d="M 75.969,138.217 H 20.183 v 17.859 h 111.571 v -17.859 z"
     style="fill:none;stroke:#8eb4e3;stroke-width:2.01256;stroke-linecap:butt;stroke-linejoin:round;stroke-miterlimit:10;stroke-dasharray:none;stroke-opacity:1"
     id="path881"
     inkscape:connector-curvature="0" /></g><g
   id="g883"
   style="fill:#ffffff"><path
     d="M 75.969,66.217 H 20.183 V 84.076 H 131.754 V 66.217 Z"
     style="fill:#ffffff;stroke:#8eb4e3;stroke-width:2.01256;stroke-linecap:butt;stroke-linejoin:round;stroke-miterlimit:10;stroke-dasharray:none;stroke-opacity:1"
     id="path885"
     inkscape:connector-curvature="0" /></g><path
   d="m 183.146,263.083 h -55.785 v 17.859 h 111.571 v -17.859 z"
   style="fill:#d7e4bd;fill-opacity:1;fill-rule:evenodd;stroke:none"
   id="path887"
   inkscape:connector-curvature="0" /><g
   id="g889"><path
     d="m 183.146,263.083 h -55.785 v 17.859 h 111.571 v -17.859 z"
     style="fill:none;stroke:#8eb4e3;stroke-width:2.01256;stroke-linecap:butt;stroke-linejoin:round;stroke-miterlimit:10;stroke-dasharray:none;stroke-opacity:1"
     id="path891"
     inkscape:connector-curvature="0" /></g><g
   id="g893"
   style="fill:#ffffff"><path
     d="m 183.146,281.083 h -55.785 v 17.859 h 111.571 v -17.859 z"
     style="fill:#ffffff;stroke:#8eb4e3;stroke-width:2.01256;stroke-linecap:butt;stroke-linejoin:round;stroke-miterlimit:10;stroke-dasharray:none;stroke-opacity:1"
     id="path895"
     inkscape:connector-curvature="0" /></g><path
   d="m 183.146,316.743 h -55.785 v 17.859 h 111.571 v -17.859 z"
   style="fill:#d7e4bd;fill-opacity:1;fill-rule:evenodd;stroke:none"
   id="path897"
   inkscape:connector-curvature="0" /><g
   id="g899"><path
     d="m 183.146,316.743 h -55.785 v 17.859 h 111.571 v -17.859 z"
     style="fill:none;stroke:#8eb4e3;stroke-width:2.01256;stroke-linecap:butt;stroke-linejoin:round;stroke-miterlimit:10;stroke-dasharray:none;stroke-opacity:1"
     id="path901"
     inkscape:connector-curvature="0" /></g><g
   id="g903"><path
     d="m 183.146,244.743 h -55.785 v 17.859 h 111.571 v -17.859 z"
     style="fill:#ffffff;stroke:#8eb4e3;stroke-width:2.01256;stroke-linecap:butt;stroke-linejoin:round;stroke-miterlimit:10;stroke-dasharray:none;stroke-opacity:1"
     id="path905"
     inkscape:connector-curvature="0" /></g><g
   id="g907"
   style="fill:#ffffff"><path
     d="m 183.146,226.743 h -55.785 v 17.859 h 111.571 v -17.859 z"
     style="fill:#ffffff;stroke:#8eb4e3;stroke-width:2.01256;stroke-linecap:butt;stroke-linejoin:round;stroke-miterlimit:10;stroke-dasharray:none;stroke-opacity:1"
     id="path909"
     inkscape:connector-curvature="0" /></g><path
   d="m 183.146,209.083 h -55.785 v 17.859 h 111.571 v -17.859 z"
   style="fill:#d7e4bd;fill-opacity:1;fill-rule:evenodd;stroke:none"
   id="path911"
   inkscape:connector-curvature="0" /><g
   id="g913"><path
     d="m 183.146,209.083 h -55.785 v 17.859 h 111.571 v -17.859 z"
     style="fill:none;stroke:#8eb4e3;stroke-width:2.01256;stroke-linecap:butt;stroke-linejoin:round;stroke-miterlimit:10;stroke-dasharray:none;stroke-opacity:1"
     id="path915"
     inkscape:connector-curvature="0" /></g><path
   d="M 403.795,288.482 H 348.009 V 306.34 H 459.581 V 288.482 Z"
   style="fill:#d7e4bd;fill-opacity:1;fill-rule:evenodd;stroke:none"
   id="path917"
   inkscape:connector-curvature="0" /><g
   id="g919"><path
     d="M 403.795,288.482 H 348.009 V 306.34 H 459.581 V 288.482 Z"
     style="fill:none;stroke:#8eb4e3;stroke-width:2.01256;stroke-linecap:butt;stroke-linejoin:round;stroke-miterlimit:10;stroke-dasharray:none;stroke-opacity:1"
     id="path921"
     inkscape:connector-curvature="0" /></g><path
   d="M 403.795,306.482 H 348.009 V 324.34 H 459.581 V 306.482 Z"
   style="fill:#c6d9f1;fill-opacity:1;fill-rule:evenodd;stroke:none"
   id="path923"
   inkscape:connector-curvature="0" /><g
   id="g925"><path
     d="M 403.795,306.482 H 348.009 V 324.34 H 459.581 V 306.482 Z"
     style="fill:none;stroke:#8eb4e3;stroke-width:2.01256;stroke-linecap:butt;stroke-linejoin:round;stroke-miterlimit:10;stroke-dasharray:none;stroke-opacity:1"
     id="path927"
     inkscape:connector-curvature="0" /></g><path
   d="m 403.795,342.624 h -55.786 v 17.858 h 111.572 v -17.858 z"
   style="fill:#d7e4bd;fill-opacity:1;fill-rule:evenodd;stroke:none"
   id="path929"
   inkscape:connector-curvature="0" /><g
   id="g931"><path
     d="m 403.795,342.624 h -55.786 v 17.858 h 111.572 v -17.858 z"
     style="fill:none;stroke:#8eb4e3;stroke-width:2.01256;stroke-linecap:butt;stroke-linejoin:round;stroke-miterlimit:10;stroke-dasharray:none;stroke-opacity:1"
     id="path933"
     inkscape:connector-curvature="0" /></g><path
   d="M 403.795,270.482 H 348.009 V 288.34 H 459.581 V 270.482 Z"
   style="fill:#c6d9f1;fill-opacity:1;fill-rule:evenodd;stroke:none"
   id="path935"
   inkscape:connector-curvature="0" /><g
   id="g937"><path
     d="M 403.795,270.482 H 348.009 V 288.34 H 459.581 V 270.482 Z"
     style="fill:none;stroke:#8eb4e3;stroke-width:2.01256;stroke-linecap:butt;stroke-linejoin:round;stroke-miterlimit:10;stroke-dasharray:none;stroke-opacity:1"
     id="path939"
     inkscape:connector-curvature="0" /></g><path
   d="m 403.795,324.624 h -55.786 v 17.858 h 111.572 v -17.858 z"
   style="fill:#c6d9f1;fill-opacity:1;fill-rule:evenodd;stroke:none"
   id="path941"
   inkscape:connector-curvature="0" /><g
   id="g943"><path
     d="m 403.795,324.624 h -55.786 v 17.858 h 111.572 v -17.858 z"
     style="fill:none;stroke:#8eb4e3;stroke-width:2.01256;stroke-linecap:butt;stroke-linejoin:round;stroke-miterlimit:10;stroke-dasharray:none;stroke-opacity:1"
     id="path945"
     inkscape:connector-curvature="0" /></g><path
   d="M 403.795,234.142 H 348.009 V 252 h 111.572 v -17.858 z"
   style="fill:#d7e4bd;fill-opacity:1;fill-rule:evenodd;stroke:none"
   id="path947"
   inkscape:connector-curvature="0" /><g
   id="g949"><path
     d="M 403.795,234.142 H 348.009 V 252 h 111.572 v -17.858 z"
     style="fill:none;stroke:#8eb4e3;stroke-width:2.01256;stroke-linecap:butt;stroke-linejoin:round;stroke-miterlimit:10;stroke-dasharray:none;stroke-opacity:1"
     id="path951"
     inkscape:connector-curvature="0" /></g><path
   d="M 403.795,198.142 H 348.009 V 216 h 111.572 v -17.858 z"
   style="fill:#c6d9f1;fill-opacity:1;fill-rule:evenodd;stroke:none"
   id="path953"
   inkscape:connector-curvature="0" /><g
   id="g955"><path
     d="M 403.795,198.142 H 348.009 V 216 h 111.572 v -17.858 z"
     style="fill:none;stroke:#8eb4e3;stroke-width:2.01256;stroke-linecap:butt;stroke-linejoin:round;stroke-miterlimit:10;stroke-dasharray:none;stroke-opacity:1"
     id="path957"
     inkscape:connector-curvature="0" /></g><path
   d="M 403.795,180.142 H 348.009 V 198 h 111.572 v -17.858 z"
   style="fill:#c6d9f1;fill-opacity:1;fill-rule:evenodd;stroke:none"
   id="path959"
   inkscape:connector-curvature="0" /><g
   id="g961"><path
     d="M 403.795,180.142 H 348.009 V 198 h 111.572 v -17.858 z"
     style="fill:none;stroke:#8eb4e3;stroke-width:2.01256;stroke-linecap:butt;stroke-linejoin:round;stroke-miterlimit:10;stroke-dasharray:none;stroke-opacity:1"
     id="path963"
     inkscape:connector-curvature="0" /></g><path
   d="m 403.795,216.624 h -55.786 v 17.858 h 111.572 v -17.858 z"
   style="fill:#77933c;fill-opacity:1;fill-rule:evenodd;stroke:none"
   id="path965"
   inkscape:connector-curvature="0" /><g
   id="g967"><path
     d="m 403.795,216.624 h -55.786 v 17.858 h 111.572 v -17.858 z"
     style="fill:none;stroke:#8eb4e3;stroke-width:2.01256;stroke-linecap:butt;stroke-linejoin:round;stroke-miterlimit:10;stroke-dasharray:none;stroke-opacity:1"
     id="path969"
     inkscape:connector-curvature="0" /></g><g
   id="g971"><path
     d="m 239.074,325.871 103.408,24.52"
     style="fill:none;stroke:#4a7ebb;stroke-width:0.73699;stroke-linecap:butt;stroke-linejoin:round;stroke-miterlimit:10;stroke-dasharray:none;stroke-opacity:1"
     id="path973"
     inkscape:connector-curvature="0" /></g><path
   d="m 347.896,351.666 -5.102,-4.28 -1.389,5.811 z"
   style="fill:#4a7ebb;fill-opacity:1;fill-rule:evenodd;stroke:none"
   id="path975"
   inkscape:connector-curvature="0" /><g
   id="g977"><path
     d="m 239.074,271.928 103.72,-44.164"
     style="fill:none;stroke:#4a7ebb;stroke-width:0.73699;stroke-linecap:butt;stroke-linejoin:round;stroke-miterlimit:10;stroke-dasharray:none;stroke-opacity:1"
     id="path979"
     inkscape:connector-curvature="0" /></g><path
   d="m 347.896,225.581 -6.633,-0.397 2.324,5.471 z"
   style="fill:#4a7ebb;fill-opacity:1;fill-rule:evenodd;stroke:none"
   id="path981"
   inkscape:connector-curvature="0" /><g
   id="g983"><path
     d="m 131.868,147.345 210.926,93.572"
     style="fill:none;stroke:#4a7ebb;stroke-width:0.73699;stroke-linecap:butt;stroke-linejoin:round;stroke-miterlimit:10;stroke-dasharray:none;stroke-opacity:1"
     id="path985"
     inkscape:connector-curvature="0" /></g><path
   d="m 347.868,243.156 -4.224,-5.131 -2.438,5.443 z"
   style="fill:#4a7ebb;fill-opacity:1;fill-rule:evenodd;stroke:none"
   id="path987"
   inkscape:connector-curvature="0" /><g
   id="g989"><path
     d="m 239.074,218.211 104.343,76.025"
     style="fill:none;stroke:#4a7ebb;stroke-width:0.73699;stroke-linecap:butt;stroke-linejoin:round;stroke-miterlimit:10;stroke-dasharray:none;stroke-opacity:1"
     id="path991"
     inkscape:connector-curvature="0" /></g><path
   d="m 347.896,297.496 -3.061,-5.924 -3.515,4.819 z"
   style="fill:#4a7ebb;fill-opacity:1;fill-rule:evenodd;stroke:none"
   id="path993"
   inkscape:connector-curvature="0" /><g
   id="g995"><path
     d="M 131.868,129.345 342.794,223.37"
     style="fill:none;stroke:#4a7ebb;stroke-width:0.73699;stroke-linecap:butt;stroke-linejoin:round;stroke-miterlimit:10;stroke-dasharray:none;stroke-opacity:1"
     id="path997"
     inkscape:connector-curvature="0" /></g><path
   d="m 347.868,225.638 -4.224,-5.131 -2.438,5.414 z"
   style="fill:#4a7ebb;fill-opacity:1;fill-rule:evenodd;stroke:none"
   id="path999"
   inkscape:connector-curvature="0" /><g
   id="g1001"
   style="fill:#333333"><text
   transform="matrix(1,0,0,-1,82.29,310.904)"
   style="font-variant:normal;font-weight:normal;font-size:18px;font-family:sans-serif;-inkscape-font-specification:sans-serif;writing-mode:lr-tb;fill:#333333;fill-opacity:1;fill-rule:nonzero;stroke:none"
   id="text1005"
   y="0"><tspan
     x="0 9.198 13.302 17.406"
     y="0"
     sodipodi:role="line"
     id="tspan1003">Pile</tspan></text>


</g><g
   id="g1007"
   style="fill:#333333"><text
   transform="matrix(1,0,0,-1,43.398,277.597)"
   style="font-variant:normal;font-weight:normal;font-size:18px;font-family:sans-serif;-inkscape-font-specification:sans-serif;writing-mode:lr-tb;fill:#333333;fill-opacity:1;fill-rule:nonzero;stroke:none"
   id="text1011"
   y="0"><tspan
     x="0 15.39 24.372 38.754002"
     y="0"
     sodipodi:role="line"
     id="tspan1009">Mem.</tspan></text>


</g><g
   id="g1013"
   style="fill:#333333"><text
   transform="matrix(1,0,0,-1,43.398,255.997)"
   style="font-variant:normal;font-weight:normal;font-size:18px;font-family:sans-serif;-inkscape-font-specification:sans-serif;writing-mode:lr-tb;fill:#333333;fill-opacity:1;fill-rule:nonzero;stroke:none"
   id="text1017"
   y="0"><tspan
     x="0 9.4860001 18.09 24.372 30.167999 38.771999 47.07 56.051998"
     y="0"
     sodipodi:role="line"
     id="tspan1015">partagée</tspan></text>


</g><path
   d="M 403.795,252.142 H 348.009 V 270 h 111.572 v -17.858 z"
   style="fill:#c6d9f1;fill-opacity:1;fill-rule:evenodd;stroke:none"
   id="path1019"
   inkscape:connector-curvature="0" /><g
   id="g1021"><path
     d="M 403.795,252.142 H 348.009 V 270 h 111.572 v -17.858 z"
     style="fill:none;stroke:#8eb4e3;stroke-width:2.01256;stroke-linecap:butt;stroke-linejoin:round;stroke-miterlimit:10;stroke-dasharray:none;stroke-opacity:1"
     id="path1023"
     inkscape:connector-curvature="0" /></g><g
   id="g1025"
   style="fill:#333333"><text
   transform="matrix(1,0,0,-1,85.691,211.011)"
   style="font-variant:normal;font-weight:normal;font-size:18px;font-family:sans-serif;-inkscape-font-specification:sans-serif;writing-mode:lr-tb;fill:#333333;fill-opacity:1;fill-rule:nonzero;stroke:none"
   id="text1029"
   y="0"><tspan
     x="0 7.3979998 16.002001"
     y="0"
     sodipodi:role="line"
     id="tspan1027">Tas</tspan></text>


</g><path
   d="m 619.795,104.428 h -55.786 v 17.859 h 111.572 v -17.859 z"
   style="fill:#0070c0;fill-opacity:1;fill-rule:evenodd;stroke:none"
   id="path1031"
   inkscape:connector-curvature="0" /><g
   id="g1033"><path
     d="m 619.795,104.428 h -55.786 v 17.859 h 111.572 v -17.859 z"
     style="fill:none;stroke:#8eb4e3;stroke-width:2.01256;stroke-linecap:butt;stroke-linejoin:round;stroke-miterlimit:10;stroke-dasharray:none;stroke-opacity:1"
     id="path1035"
     inkscape:connector-curvature="0" /></g><path
   d="m 619.795,139.805 h -55.786 v 17.858 h 111.572 v -17.858 z"
   style="fill:#0070c0;fill-opacity:1;fill-rule:evenodd;stroke:none"
   id="path1037"
   inkscape:connector-curvature="0" /><g
   id="g1039"><path
     d="m 619.795,139.805 h -55.786 v 17.858 h 111.572 v -17.858 z"
     style="fill:none;stroke:#8eb4e3;stroke-width:2.01256;stroke-linecap:butt;stroke-linejoin:round;stroke-miterlimit:10;stroke-dasharray:none;stroke-opacity:1"
     id="path1041"
     inkscape:connector-curvature="0" /></g><path
   d="m 619.795,175.833 h -55.786 v 17.858 h 111.572 v -17.858 z"
   style="fill:#e6b9b8;fill-opacity:1;fill-rule:evenodd;stroke:none"
   id="path1043"
   inkscape:connector-curvature="0" /><g
   id="g1045"><path
     d="m 619.795,175.833 h -55.786 v 17.858 h 111.572 v -17.858 z"
     style="fill:none;stroke:#8eb4e3;stroke-width:2.01256;stroke-linecap:butt;stroke-linejoin:round;stroke-miterlimit:10;stroke-dasharray:none;stroke-opacity:1"
     id="path1047"
     inkscape:connector-curvature="0" /></g><path
   d="m 619.795,157.805 h -55.786 v 17.858 h 111.572 v -17.858 z"
   style="fill:#0070c0;fill-opacity:1;fill-rule:evenodd;stroke:none"
   id="path1049"
   inkscape:connector-curvature="0" /><g
   id="g1051"><path
     d="m 619.795,157.805 h -55.786 v 17.858 h 111.572 v -17.858 z"
     style="fill:none;stroke:#8eb4e3;stroke-width:2.01256;stroke-linecap:butt;stroke-linejoin:round;stroke-miterlimit:10;stroke-dasharray:none;stroke-opacity:1"
     id="path1053"
     inkscape:connector-curvature="0" /></g><path
   d="m 619.795,121.805 h -55.786 v 17.858 h 111.572 v -17.858 z"
   style="fill:#0070c0;fill-opacity:1;fill-rule:evenodd;stroke:none"
   id="path1055"
   inkscape:connector-curvature="0" /><g
   id="g1057"><path
     d="m 619.795,121.805 h -55.786 v 17.858 h 111.572 v -17.858 z"
     style="fill:none;stroke:#8eb4e3;stroke-width:2.01256;stroke-linecap:butt;stroke-linejoin:round;stroke-miterlimit:10;stroke-dasharray:none;stroke-opacity:1"
     id="path1059"
     inkscape:connector-curvature="0" /></g><path
   d="m 619.795,193.833 h -55.786 v 17.858 h 111.572 v -17.858 z"
   style="fill:#0070c0;fill-opacity:1;fill-rule:evenodd;stroke:none"
   id="path1061"
   inkscape:connector-curvature="0" /><g
   id="g1063"><path
     d="m 619.795,193.833 h -55.786 v 17.858 h 111.572 v -17.858 z"
     style="fill:none;stroke:#8eb4e3;stroke-width:2.01256;stroke-linecap:butt;stroke-linejoin:round;stroke-miterlimit:10;stroke-dasharray:none;stroke-opacity:1"
     id="path1065"
     inkscape:connector-curvature="0" /></g><path
   d="m 619.795,211.833 h -55.786 v 17.858 h 111.572 v -17.858 z"
   style="fill:#0070c0;fill-opacity:1;fill-rule:evenodd;stroke:none"
   id="path1067"
   inkscape:connector-curvature="0" /><g
   id="g1069"><path
     d="m 619.795,211.833 h -55.786 v 17.858 h 111.572 v -17.858 z"
     style="fill:none;stroke:#8eb4e3;stroke-width:2.01256;stroke-linecap:butt;stroke-linejoin:round;stroke-miterlimit:10;stroke-dasharray:none;stroke-opacity:1"
     id="path1071"
     inkscape:connector-curvature="0" /></g><path
   d="M 619.795,230.202 H 564.009 V 248.06 H 675.581 V 230.202 Z"
   style="fill:#0070c0;fill-opacity:1;fill-rule:evenodd;stroke:none"
   id="path1073"
   inkscape:connector-curvature="0" /><g
   id="g1075"><path
     d="M 619.795,230.202 H 564.009 V 248.06 H 675.581 V 230.202 Z"
     style="fill:none;stroke:#8eb4e3;stroke-width:2.01256;stroke-linecap:butt;stroke-linejoin:round;stroke-miterlimit:10;stroke-dasharray:none;stroke-opacity:1"
     id="path1077"
     inkscape:connector-curvature="0" /></g><path
   d="M 619.795,248.202 H 564.009 V 266.06 H 675.581 V 248.202 Z"
   style="fill:#0070c0;fill-opacity:1;fill-rule:evenodd;stroke:none"
   id="path1079"
   inkscape:connector-curvature="0" /><g
   id="g1081"><path
     d="M 619.795,248.202 H 564.009 V 266.06 H 675.581 V 248.202 Z"
     style="fill:none;stroke:#8eb4e3;stroke-width:2.01256;stroke-linecap:butt;stroke-linejoin:round;stroke-miterlimit:10;stroke-dasharray:none;stroke-opacity:1"
     id="path1083"
     inkscape:connector-curvature="0" /></g><path
   d="m 619.795,265.72 h -55.786 v 17.858 H 675.581 V 265.72 Z"
   style="fill:#0070c0;fill-opacity:1;fill-rule:evenodd;stroke:none"
   id="path1085"
   inkscape:connector-curvature="0" /><g
   id="g1087"><path
     d="m 619.795,265.72 h -55.786 v 17.858 H 675.581 V 265.72 Z"
     style="fill:none;stroke:#8eb4e3;stroke-width:2.01256;stroke-linecap:butt;stroke-linejoin:round;stroke-miterlimit:10;stroke-dasharray:none;stroke-opacity:1"
     id="path1089"
     inkscape:connector-curvature="0" /></g><path
   d="m 619.795,283.72 h -55.786 v 17.858 H 675.581 V 283.72 Z"
   style="fill:#0070c0;fill-opacity:1;fill-rule:evenodd;stroke:none"
   id="path1091"
   inkscape:connector-curvature="0" /><g
   id="g1093"><path
     d="m 619.795,283.72 h -55.786 v 17.858 H 675.581 V 283.72 Z"
     style="fill:none;stroke:#8eb4e3;stroke-width:2.01256;stroke-linecap:butt;stroke-linejoin:round;stroke-miterlimit:10;stroke-dasharray:none;stroke-opacity:1"
     id="path1095"
     inkscape:connector-curvature="0" /></g><path
   d="m 619.795,300.756 h -55.786 v 17.858 h 111.572 v -17.858 z"
   style="fill:#0070c0;fill-opacity:1;fill-rule:evenodd;stroke:none"
   id="path1097"
   inkscape:connector-curvature="0" /><g
   id="g1099"><path
     d="m 619.795,300.756 h -55.786 v 17.858 h 111.572 v -17.858 z"
     style="fill:none;stroke:#8eb4e3;stroke-width:2.01256;stroke-linecap:butt;stroke-linejoin:round;stroke-miterlimit:10;stroke-dasharray:none;stroke-opacity:1"
     id="path1101"
     inkscape:connector-curvature="0" /></g><path
   d="m 619.795,318.643 h -55.786 v 17.858 h 111.572 v -17.858 z"
   style="fill:#0070c0;fill-opacity:1;fill-rule:evenodd;stroke:none"
   id="path1103"
   inkscape:connector-curvature="0" /><g
   id="g1105"><path
     d="m 619.795,318.643 h -55.786 v 17.858 h 111.572 v -17.858 z"
     style="fill:none;stroke:#8eb4e3;stroke-width:2.01256;stroke-linecap:butt;stroke-linejoin:round;stroke-miterlimit:10;stroke-dasharray:none;stroke-opacity:1"
     id="path1107"
     inkscape:connector-curvature="0" /></g><path
   d="m 619.795,336.643 h -55.786 v 17.858 h 111.572 v -17.858 z"
   style="fill:#0070c0;fill-opacity:1;fill-rule:evenodd;stroke:none"
   id="path1109"
   inkscape:connector-curvature="0" /><g
   id="g1111"><path
     d="m 619.795,336.643 h -55.786 v 17.858 h 111.572 v -17.858 z"
     style="fill:none;stroke:#8eb4e3;stroke-width:2.01256;stroke-linecap:butt;stroke-linejoin:round;stroke-miterlimit:10;stroke-dasharray:none;stroke-opacity:1"
     id="path1113"
     inkscape:connector-curvature="0" /></g><path
   d="m 619.795,354.132 h -55.786 v 17.859 h 111.572 v -17.859 z"
   style="fill:#0070c0;fill-opacity:1;fill-rule:evenodd;stroke:none"
   id="path1115"
   inkscape:connector-curvature="0" /><g
   id="g1117"><path
     d="m 619.795,354.132 h -55.786 v 17.859 h 111.572 v -17.859 z"
     style="fill:none;stroke:#8eb4e3;stroke-width:2.01256;stroke-linecap:butt;stroke-linejoin:round;stroke-miterlimit:10;stroke-dasharray:none;stroke-opacity:1"
     id="path1119"
     inkscape:connector-curvature="0" /></g><g
   id="g1121"><path
     d="m 131.868,93.317 426.557,90.34"
     style="fill:none;stroke:#4a7ebb;stroke-width:0.73699;stroke-linecap:butt;stroke-linejoin:round;stroke-miterlimit:10;stroke-dasharray:none;stroke-opacity:1"
     id="path1123"
     inkscape:connector-curvature="0" /></g><path
   d="m 563.868,184.819 -5.216,-4.139 -1.219,5.811 z"
   style="fill:#4a7ebb;fill-opacity:1;fill-rule:evenodd;stroke:none"
   id="path1125"
   inkscape:connector-curvature="0" /><path
   d="m 183.146,298.743 h -55.785 v 17.859 h 111.571 v -17.859 z"
   style="fill:#d7e4bd;fill-opacity:1;fill-rule:evenodd;stroke:none"
   id="path1127"
   inkscape:connector-curvature="0" /><g
   id="g1129"><path
     d="m 183.146,298.743 h -55.785 v 17.859 h 111.571 v -17.859 z"
     style="fill:none;stroke:#8eb4e3;stroke-width:2.01256;stroke-linecap:butt;stroke-linejoin:round;stroke-miterlimit:10;stroke-dasharray:none;stroke-opacity:1"
     id="path1131"
     inkscape:connector-curvature="0" /></g><path
   d="M 403.795,306.482 H 348.009 V 324.34 H 459.581 V 306.482 Z"
   style="fill:#d7e4bd;fill-opacity:1;fill-rule:evenodd;stroke:none"
   id="path1133"
   inkscape:connector-curvature="0" /><g
   id="g1135"><path
     d="M 403.795,306.482 H 348.009 V 324.34 H 459.581 V 306.482 Z"
     style="fill:none;stroke:#8eb4e3;stroke-width:2.01256;stroke-linecap:butt;stroke-linejoin:round;stroke-miterlimit:10;stroke-dasharray:none;stroke-opacity:1"
     id="path1137"
     inkscape:connector-curvature="0" /></g><g
   id="g1139"><path
     d="m 239.074,307.871 103.266,7.257"
     style="fill:none;stroke:#4a7ebb;stroke-width:0.73699;stroke-linecap:butt;stroke-linejoin:round;stroke-miterlimit:10;stroke-dasharray:none;stroke-opacity:1"
     id="path1141"
     inkscape:connector-curvature="0" /></g><path
   d="m 347.896,315.524 -5.726,-3.373 -0.425,5.925 z"
   style="fill:#4a7ebb;fill-opacity:1;fill-rule:evenodd;stroke:none"
   id="path1143"
   inkscape:connector-curvature="0" /><g
   id="g1145"><path
     d="m 120.387,299.083 v 0 h -0.056 -0.029 -0.056 -0.029 -0.056 -0.029 -0.056 -0.029 -0.056 -0.029 -0.056 -0.029 l -0.057,0.029 h -0.028 -0.057 -0.028 -0.028 -0.057 -0.028 -0.057 -0.028 l -0.029,0.028 h -0.056 -0.029 -0.028 -0.028 -0.057 -0.028 l -0.029,0.029 h -0.028 -0.028 -0.029 -0.028 -0.029 l -0.028,0.028 h -0.028 -0.029 -0.028 -0.028 l -0.029,0.028 h -0.028 v 0 h -0.028 l -0.029,0.029 v 0 h -0.028 -0.028 v 0.028 h -0.029 v 0 h -0.028 v 0 0.028 h -0.028 v 0 0 l -0.029,0.029 v 0 0 0 0.028 0 l -0.028,17.206 h -0.028 v 0 0.029 0 0 0 h -0.029 v 0.028 0 h -0.028 v 0 0.028 h -0.028 v 0 h -0.029 v 0.029 h -0.028 v 0 h -0.029 l -0.028,0.028 h -0.028 v 0 h -0.029 -0.028 l -0.028,0.028 h -0.029 -0.028 v 0 h -0.028 l -0.029,0.029 h -0.028 -0.057 -0.028 -0.028 l -0.029,0.028 h -0.028 -0.028 -0.029 -0.056 -0.029 -0.028 l -0.028,0.028 h -0.057 -0.029 -0.056 -0.029 -0.028 -0.057 -0.028 -0.057 l -0.028,0.029 h -0.028 -0.057 -0.028 -0.057 -0.028 -0.057 -0.028 -0.057 -0.028 -0.057 -0.029 -0.056 v 0 h 0.056 0.029 0.057 0.028 0.057 0.028 0.057 0.028 0.057 0.028 0.057 0.028 l 0.057,0.028 h 0.028 0.057 0.028 0.028 0.057 0.028 0.057 0.029 l 0.028,0.028 h 0.057 0.028 0.028 0.029 0.056 0.029 l 0.028,0.029 h 0.028 0.029 0.028 0.028 0.029 l 0.028,0.028 h 0.028 0.029 0.028 0.028 l 0.029,0.028 h 0.028 v 0 h 0.028 l 0.029,0.029 v 0 h 0.028 0.029 v 0.028 h 0.028 v 0 h 0.028 v 0 0.028 h 0.029 v 0 0 l 0.028,0.029 v 0 0 0 0.028 0 17.206 0 0 0.029 0 0 0 l 0.028,0.028 v 0 0 h 0.029 v 0.028 0 h 0.028 v 0 h 0.028 v 0.029 h 0.029 0.028 v 0 l 0.028,0.028 h 0.029 v 0 h 0.028 l 0.028,0.029 h 0.029 0.028 0.028 0.029 l 0.028,0.028 h 0.028 0.029 0.028 0.029 0.028 l 0.028,0.028 h 0.029 0.056 0.029 0.028 0.028 0.057 l 0.028,0.029 h 0.029 0.056 0.029 0.056 0.029 0.028 0.057 0.028 l 0.057,0.028 h 0.028 0.057 0.028 0.057 0.028 0.057 0.028 0.057 0.028 0.057 0.028 0.057"
     style="fill:none;stroke:#4a7ebb;stroke-width:0.73699;stroke-linecap:butt;stroke-linejoin:round;stroke-miterlimit:10;stroke-dasharray:none;stroke-opacity:1"
     id="path1147"
     inkscape:connector-curvature="0" /></g><path
   d="m 341.66,105.676 h -27.865 v 17.858 h 55.729 v -17.858 z"
   style="fill:#d7e4bd;fill-opacity:1;fill-rule:evenodd;stroke:none"
   id="path1161"
   inkscape:connector-curvature="0" /><g
   id="g1163"><path
     d="m 341.66,105.676 h -27.865 v 17.858 h 55.729 v -17.858 z"
     style="fill:none;stroke:#8eb4e3;stroke-width:2.01256;stroke-linecap:butt;stroke-linejoin:round;stroke-miterlimit:10;stroke-dasharray:none;stroke-opacity:1"
     id="path1165"
     inkscape:connector-curvature="0" /></g><g
   id="g1167"
   style="fill:#ffffff"><path
     d="M 341.66,73.162 H 313.795 V 91.02 h 55.729 V 73.162 Z"
     style="fill:#ffffff;stroke:#8eb4e3;stroke-width:2.01256;stroke-linecap:butt;stroke-linejoin:round;stroke-miterlimit:10;stroke-dasharray:none;stroke-opacity:1"
     id="path1169"
     inkscape:connector-curvature="0" /></g><path
   d="m 341.66,12.132 h -27.865 v 17.859 h 55.729 V 12.132 Z"
   style="fill:#e6b9b8;fill-opacity:1;fill-rule:evenodd;stroke:none"
   id="path1171"
   inkscape:connector-curvature="0" /><g
   id="g1173"><path
     d="m 341.66,12.132 h -27.865 v 17.859 h 55.729 V 12.132 Z"
     style="fill:none;stroke:#8eb4e3;stroke-width:2.01256;stroke-linecap:butt;stroke-linejoin:round;stroke-miterlimit:10;stroke-dasharray:none;stroke-opacity:1"
     id="path1175"
     inkscape:connector-curvature="0" /></g><g
   id="g1177"
   style="fill:#333333"><text
   transform="matrix(1,0,0,-1,378.51,107.49)"
   style="font-variant:normal;font-weight:normal;font-size:18px;font-family:sans-serif;-inkscape-font-specification:sans-serif;writing-mode:lr-tb;fill:#333333;fill-opacity:1;fill-rule:nonzero;stroke:none"
   id="text1181"
   y="0"><tspan
     x="0 8.8920002 17.568001 25.775999 34.757999 38.844002 47.034 51.029999 57.312 63.306 72.792 81.774002 85.877998 89.874001 98.963997 102.96 110.862 119.538 123.642 127.746 137.142"
     y="0"
     sodipodi:role="line"
     id="tspan1179">Page virtuelle valide</tspan></text>


</g><g
   id="g1183"
   style="fill:#333333"><text
   transform="matrix(1,0,0,-1,378.794,75.09)"
   style="font-variant:normal;font-weight:normal;font-size:18px;font-family:sans-serif;-inkscape-font-specification:sans-serif;writing-mode:lr-tb;fill:#333333;fill-opacity:1;fill-rule:nonzero;stroke:none"
   id="text1187"
   y="0"><tspan
     x="0 8.802 17.478001 25.775999 34.757999 38.844002 46.944 51.048 57.240002 63.234001 72.720001 81.702003 85.806 89.910004 98.891998 106.974 116.46 125.946 135.43201 139.51801 147.42 156.024 160.12801 164.23199 173.62801"
     y="0"
     sodipodi:role="line"
     id="tspan1185">Page virtuelle non valide</tspan></text>


</g><path
   d="m 341.66,42.746 h -27.865 v 17.859 h 55.729 V 42.746 Z"
   style="fill:#77933c;fill-opacity:1;fill-rule:evenodd;stroke:none"
   id="path1189"
   inkscape:connector-curvature="0" /><g
   id="g1191"><path
     d="m 341.66,42.746 h -27.865 v 17.859 h 55.729 V 42.746 Z"
     style="fill:none;stroke:#8eb4e3;stroke-width:2.01256;stroke-linecap:butt;stroke-linejoin:round;stroke-miterlimit:10;stroke-dasharray:none;stroke-opacity:1"
     id="path1193"
     inkscape:connector-curvature="0" /></g><g
   id="g1195"
   style="fill:#333333"><text
   transform="matrix(1,0,0,-1,378.595,44.589)"
   style="font-variant:normal;font-weight:normal;font-size:18px;font-family:sans-serif;-inkscape-font-specification:sans-serif;writing-mode:lr-tb;fill:#333333;fill-opacity:1;fill-rule:nonzero;stroke:none"
   id="text1199"
   y="0"><tspan
     x="0 8.8920002 17.496 25.794001 34.776001 38.862 48.348 57.456001 65.447998 72.522003 76.625999 86.112 95.598 104.58 108.576 118.062 126.738 132.92999 138.726 147.33 155.62801 164.61"
     y="0"
     sodipodi:role="line"
     id="tspan1197">Page physique partagée</tspan></text>


</g><g
   id="g1201"
   style="fill:#333333"><text
   transform="matrix(1,0,0,-1,379.587,14.003)"
   style="font-variant:normal;font-weight:normal;font-size:18px;font-family:sans-serif;-inkscape-font-specification:sans-serif;writing-mode:lr-tb;fill:#333333;fill-opacity:1;fill-rule:nonzero;stroke:none"
   id="text1205"
   y="0"><tspan
     x="0 8.802 17.478001 25.775999 34.757999 38.844002 48.240002 56.916 66.311996 73.386002 77.472 81.575996 90.557999 94.554001 101.556 114.354 122.958 132.444 136.44 143.424 147.50999 156.996 161.10001 168.10201 177.588 187.07401 196.056 200.142 209.53799 219.024 225.01801 234 238.086 245.07001 249.06599 258.552 268.03799 277.52399 281.51999 289.51199 298.116 302.22 306.32401 315.81"
     y="0"
     sodipodi:role="line"
     id="tspan1203">Page dans le swap / disque dure / non valide</tspan></text>


</g><g
   id="g1207"
   style="fill:#333333"
   transform="translate(-12)"><text
   transform="matrix(1,0,0,-1,574.809,379.899)"
   style="font-variant:normal;font-weight:bold;font-size:18px;font-family:sans-serif;-inkscape-font-specification:sans-serif;writing-mode:lr-tb;fill:#333333;fill-opacity:1;fill-rule:nonzero;stroke:none"
   id="text1211"
   y="0"><tspan
     sodipodi:role="line"
     id="tspan1209"
     x="0"
     y="0">Disque dur</tspan></text>


</g><text
   xml:space="preserve"
   style="font-style:normal;font-weight:normal;font-size:10px;line-height:1.25;font-family:sans-serif;text-align:center;letter-spacing:0px;word-spacing:0px;text-anchor:middle;fill:#333333;fill-opacity:1;stroke:none;stroke-width:0.75;"
   x="404.15714"
   y="-387.07404"
   id="text1622"
   transform="scale(1,-1)"><tspan
     sodipodi:role="line"
     id="tspan1620"
     x="404.15714"
     y="-387.07404"
     style="font-style:normal;font-variant:normal;font-weight:bold;font-stretch:normal;font-size:18px;font-family:sans-serif;-inkscape-font-specification:sans-serif;text-align:center;text-anchor:middle;fill:#333333;stroke-width:0.75;">Mémoire physique</tspan><tspan
     sodipodi:role="line"
     x="404.15714"
     y="-364.57404"
     style="font-style:normal;font-variant:normal;font-weight:bold;font-stretch:normal;font-size:18px;font-family:sans-serif;-inkscape-font-specification:sans-serif;text-align:center;text-anchor:middle;fill:#333333;stroke-width:0.75;"
     id="tspan1624">RAM</tspan></text>


<text
   xml:space="preserve"
   style="font-style:normal;font-variant:normal;font-weight:normal;font-stretch:normal;font-size:18px;line-height:1.25;font-family:sans-serif;-inkscape-font-specification:sans-serif;text-align:center;letter-spacing:0px;word-spacing:0px;text-anchor:middle;fill:#333333;fill-opacity:1;stroke:none;stroke-width:0.75;"
   x="182.25546"
   y="-364.23804"
   id="text7266"
   transform="scale(1,-1)"><tspan
     sodipodi:role="line"
     id="tspan7264"
     x="182.25546"
     y="-364.23804"
     style="font-style:normal;font-variant:normal;font-weight:bold;font-stretch:normal;font-family:sans-serif;-inkscape-font-specification:sans-serif;fill:#333333;stroke-width:0.75;">Mémoire virtuelle</tspan><tspan
     sodipodi:role="line"
     x="182.25546"
     y="-341.73804"
     style="font-style:normal;font-variant:normal;font-weight:bold;font-stretch:normal;font-family:sans-serif;-inkscape-font-specification:sans-serif;fill:#333333;stroke-width:0.75;"
     id="tspan7268">Process 1</tspan></text>
<text
   xml:space="preserve"
   style="font-style:normal;font-variant:normal;font-weight:normal;font-stretch:normal;font-size:18px;line-height:1.25;font-family:sans-serif;-inkscape-font-specification:sans-serif;text-align:center;letter-spacing:0px;word-spacing:0px;text-anchor:middle;fill:#333333;fill-opacity:1;stroke:none;stroke-width:0.75;"
   x="76.656883"
   y="-49.10561"
   id="text7266-8"
   transform="scale(1,-1)"><tspan
     sodipodi:role="line"
     id="tspan7264-7"
     x="76.656883"
     y="-49.10561"
     style="font-style:normal;font-variant:normal;font-weight:bold;font-stretch:normal;font-family:sans-serif;-inkscape-font-specification:sans-serif;fill:#333333;stroke-width:0.75;">Mémoire virtuelle</tspan><tspan
     sodipodi:role="line"
     x="76.656883"
     y="-26.60561"
     style="font-style:normal;font-variant:normal;font-weight:bold;font-stretch:normal;font-family:sans-serif;-inkscape-font-specification:sans-serif;fill:#333333;stroke-width:0.75;"
     id="tspan7268-1">Process 2</tspan></text>
</g></svg>
